<svg width="51" height="51" viewBox="0 0 51 51" fill="none" xmlns="http://www.w3.org/2000/svg">
<path d="M43.0279 16.2786L43.0279 16.2785C43.007 15.5195 42.9624 14.7711 42.8321 14.0455L42.8321 14.0453C42.7011 13.3133 42.4868 12.6391 42.1521 11.9819C41.8232 11.3364 41.3937 10.7454 40.8817 10.2319C40.3679 9.71967 39.7784 9.29034 39.1317 8.96169L39.131 8.96134C38.4762 8.62711 37.8022 8.41433 37.0694 8.28321L37.0692 8.28317C36.3435 8.15294 35.595 8.10829 34.836 8.08743L34.8359 8.08743C34.4898 8.07786 34.1414 8.07464 33.7899 8.0714H33.7895H33.787H33.7846H33.7821H33.7797H33.7772H33.7748H33.7723H33.7699H33.7674H33.765H33.7625H33.7601H33.7576H33.7552H33.7528H33.7503H33.7479H33.7454H33.743H33.7405H33.7381H33.7356H33.7332H33.7307H33.7283H33.7258H33.7234H33.7209H33.7185H33.716H33.7136H33.7111H33.7087H33.7062H33.7038H33.7013H33.6989H33.6964H33.694H33.6915H33.6891H33.6866H33.6842H33.6817H33.6793H33.6768H33.6744H33.6719H33.6695H33.667H33.6646H33.6622H33.6597H33.6573H33.6548H33.6524H33.6499H33.6475H33.645H33.6426H33.6401H33.6377H33.6352H33.6328H33.6303H33.6279H33.6254H33.623H33.6205H33.6181H33.6156H33.6132H33.6107H33.6083H33.6058H33.6034H33.6009H33.5985H33.596H33.5936H33.5911H33.5887H33.5862H33.5838H33.5813H33.5789H33.5764H33.574H33.5716H33.5691H33.5667H33.5642H33.5618H33.5593H33.5569H33.5544H33.552H33.5495H33.5471H33.5446H33.5422H33.5397H33.5373H33.5348H33.5324H33.5299H33.5275H33.525H33.5226H33.5201H33.5177H33.5152H33.5128H33.5103H33.5079H33.5054H33.503H33.5005H33.4981H33.4956H33.4932H33.4907H33.4883H33.4858H33.4834H33.481H33.4785H33.4761H33.4736H33.4712H33.4687H33.4663H33.4638H33.4614H33.4589H33.4565H33.454H33.4516H33.4491H33.4467H33.4442H33.4418H33.4393H33.4369H33.4344H33.432H33.4295H33.4271H33.4246H33.4222H33.4197H33.4173H33.4148H33.4124H33.4099H33.4075H33.405H33.4026H33.4001H33.3977H33.3952H33.3928H33.3904H33.3879H33.3855H33.383H33.3806H33.3781H33.3757H33.3732H33.3708H33.3683H33.3659H33.3634H33.361H33.3585H33.3561H33.3536H33.3512H33.3487H33.3463H33.3438H33.3414H33.3389H33.3365H33.334H33.3316H33.3291H33.3267H33.3242H33.3218H33.3193H33.3169H33.3144H33.312H33.3095H33.3071H33.3046H33.3022H33.2998H33.2973H33.2949H33.2924H33.29H33.2875H33.2851H33.2826H33.2802H33.2777H33.2753H33.2728H33.2704H33.2679H33.2655H33.263H33.2606H33.2581H33.2557H33.2532H33.2508H33.2483H33.2459H33.2434H33.241H33.2385H33.2361H33.2336H33.2312H33.2287H33.2263H33.2238H33.2214H33.2189H33.2165H33.2141H33.2116H33.2092H33.2067H33.2043H33.2018H33.1994H33.1969H33.1945H33.192H33.1896H33.1871H33.1847H33.1822H33.1798H33.1773H33.1749H33.1724H33.17H33.1675H33.1651H33.1626H33.1602H33.1577H33.1553H33.1528H33.1504H33.1479H33.1455H33.143H33.1406H33.1381H33.1357H33.1332H33.1308H33.1283H33.1259H33.1235H33.121H33.1186H33.1161H33.1137H33.1112H33.1088H33.1063H33.1039H33.1014H33.099H33.0965H33.0941H33.0916H33.0892H33.0867H33.0843H33.0818H33.0794H33.0769H33.0745H33.072H33.0696H33.0671H33.0647H33.0622H33.0598H33.0573H33.0549H33.0524H33.05H33.0475H33.0451H33.0426H33.0402H33.0377H33.0353H33.0329H33.0304H33.028H33.0255H33.0231H33.0206H33.0182H33.0157H33.0133H33.0108H33.0084H33.0059H33.0035H33.001H32.9986H32.9961H32.9937H32.9912H32.9888H32.9863H32.9839H32.9814H32.979H32.9765H32.9741H32.9716H32.9692H32.9667H32.9643H32.9618H32.9594H32.9569H32.9545H32.952H32.9496H32.9471H32.9447H32.9423H32.9398H32.9374H32.9349H32.9325H32.93H32.9276H32.9251H32.9227H32.9202H32.9178H32.9153H32.9129H32.9104H32.908H32.9055H32.9031H32.9006H32.8982H32.8957H32.8933H32.8908H32.8884H32.8859H32.8835H32.881H32.8786H32.8761H32.8737H32.8712H32.8688H32.8663H32.8639H32.8614H32.859H32.8566H32.8541H32.8517H32.8492H32.8468H32.8443H32.8419H32.8394H32.837H32.8345H32.8321H32.8296H32.8272H32.8247H32.8223H32.8198H32.8174H32.8149H32.8125H32.81H32.8076H32.8051H32.8027H32.8002H32.7978H32.7953H32.7929H32.7904H32.788H32.7855H32.7831H32.7806H32.7782H32.7757H32.7733H32.7708H32.7684H32.7659H32.7635H32.7611H32.7586H32.7562H32.7537H32.7513H32.7488H32.7464H32.7439H32.7415H32.739H32.7366H32.7341H32.7317H32.7292H32.7268H32.7243H32.7219H32.7194H32.717H32.7145H32.7121H32.7096H32.7072H32.7047H32.7023H32.6998H32.6974H32.6949H32.6925H32.69H32.6876H32.6851H32.6827H32.6802H32.6778H32.6754H32.6729H32.6705H32.668H32.6656H32.6631H32.6607H32.6582H32.6558H32.6533H32.6509H32.6484H32.646H32.6435H32.6411H32.6386H32.6362H32.6337H32.6313H32.6288H32.6264H32.6239H32.6215H32.619H32.6166H32.6141H32.6117H32.6092H32.6068H32.6043H32.6019H32.5994H32.597H32.5945H32.5921H32.5896H32.5872H32.5848H32.5823H32.5799H32.5774H32.575H32.5725H32.5701H32.5676H32.5652H32.5627H32.5603H32.5578H32.5554H32.5529H32.5505H32.548H32.5456H32.5431H32.5407H32.5382H19.4408C19.0228 8.0714 18.6059 8.0714 18.1891 8.07302L43.0279 16.2786ZM43.0279 16.2786C43.0375 16.626 43.0423 16.9757 43.0439 17.3245C43.0455 17.7413 43.0455 18.1582 43.0455 18.5761V18.5777V19.0152H43.0471L43.0279 16.2786ZM17.1431 8.08905L17.143 8.08905C16.3839 8.10991 15.6355 8.15456 14.9098 8.28479L14.9096 8.28483C14.1775 8.41583 13.5031 8.63012 12.8474 8.96323C12.2013 9.29237 11.6088 9.72199 11.0973 10.2334C10.5855 10.7451 10.156 11.3361 9.82707 11.9832L9.82691 11.9835C9.49252 12.6401 9.2796 13.3143 9.14682 14.0475C9.01664 14.7728 8.972 15.5211 8.95277 16.2792L8.95274 16.2802C8.94313 16.6276 8.93831 16.9773 8.93671 17.3261L8.9367 17.3275C8.93347 17.7434 8.93347 18.1595 8.93347 18.5777V31.6739C8.93347 32.0921 8.93347 32.5082 8.9367 32.9241L8.93671 32.9255C8.93831 33.2743 8.94313 33.624 8.95274 33.9714L8.95274 33.9715C8.97361 34.7305 9.01825 35.4789 9.1485 36.2045L9.14854 36.2047C9.27959 36.937 9.49392 37.6126 9.82834 38.2677L9.8285 38.268C10.1575 38.9138 10.5871 39.5048 11.0989 40.0166L11.0994 40.017C11.6109 40.53 12.2017 40.9594 12.8489 41.2883L12.8496 41.2886C13.5044 41.6229 14.1784 41.8357 14.9112 41.9668L14.9114 41.9668C15.6371 42.097 16.3856 42.1417 17.1446 42.1625L17.1447 42.1626C17.4912 42.1721 17.8399 42.1753 18.1918 42.1786L18.1927 42.1786L18.1887 42.6161M17.1431 8.08905L43.4846 31.6739C43.4846 32.0918 43.4846 32.5097 43.483 32.9275L43.0455 32.9235L43.0455 32.925C43.0455 32.9251 43.0455 32.9251 43.0455 32.9251C43.0423 33.2767 43.0391 33.6252 43.0295 33.9714L43.0295 33.9715C43.0086 34.732 42.964 35.4788 42.8338 36.2043C42.701 36.9374 42.4881 37.6115 42.1537 38.268C41.8245 38.9142 41.3965 39.505 40.8838 40.0161L40.8833 40.0166C40.37 40.5299 39.779 40.9594 39.1334 41.2883C38.4776 41.6214 37.8032 41.8358 37.071 41.9668L37.0708 41.9668C36.3451 42.097 35.5967 42.1417 34.8376 42.1625L34.8375 42.1626C34.4901 42.1722 34.1404 42.177 33.7915 42.1786C33.3747 42.1802 32.9578 42.1802 32.5398 42.1802H19.4424C19.0243 42.1802 18.6073 42.1802 18.1904 42.1786L18.1887 42.6161M17.1431 8.08905C17.4905 8.07945 17.8401 8.07463 18.1889 8.07302L17.1431 8.08905ZM18.1887 42.6161C18.6066 42.6177 19.0245 42.6177 19.4424 42.6177H32.5398C32.9577 42.6177 33.3756 42.6177 33.7935 42.6161L8.49921 17.3241C8.49597 17.742 8.49597 18.1598 8.49597 18.5777V31.6739C8.49597 32.0918 8.49597 32.5097 8.49921 32.9275C8.50083 33.279 8.50569 33.632 8.51541 33.9835C8.53647 34.7496 8.58182 35.5238 8.71788 36.2817C8.85556 37.0511 9.08233 37.7686 9.43868 38.4666C9.78855 39.1533 10.2453 39.7817 10.7896 40.3259C11.3338 40.8717 11.9623 41.3285 12.6507 41.6783C13.3488 42.0346 14.0647 42.2598 14.8341 42.3974C15.5922 42.5335 16.3664 42.5788 17.1326 42.5999C17.4833 42.6096 17.8356 42.6128 18.1863 42.6161L18.1887 42.6161Z" fill="white" stroke="#EAEAEA" stroke-width="0.875"/>
<path d="M32.5389 42.624H19.4414C19.03 42.624 18.6056 42.624 18.1877 42.624H18.1845C17.8395 42.6208 17.4815 42.6175 17.13 42.6078C16.4465 42.5884 15.6382 42.5495 14.83 42.4054C14.0266 42.2612 13.3122 42.0264 12.6449 41.6863C11.9549 41.3348 11.328 40.8797 10.7822 40.3323C10.2363 39.7864 9.78114 39.1596 9.42964 38.4713C9.08787 37.8008 8.85139 37.0865 8.70885 36.2848C8.56307 35.4766 8.52581 34.6684 8.50638 33.985C8.49666 33.6546 8.4918 33.308 8.49018 32.929C8.48694 32.5111 8.48694 32.0868 8.48694 31.6754V18.5791C8.48694 18.1677 8.48694 17.7434 8.49018 17.3255C8.4918 16.9466 8.49666 16.6 8.50638 16.2696C8.52257 15.6298 8.55983 14.7908 8.70723 13.9697C8.85301 13.1647 9.08949 12.4505 9.42803 11.7832C9.7779 11.0932 10.2331 10.4664 10.7805 9.92064C11.3264 9.37483 11.9532 8.91971 12.6433 8.56825C13.3155 8.22651 14.0298 7.99167 14.8283 7.84914C15.6382 7.70014 16.4465 7.66127 17.13 7.64183C17.4605 7.63211 17.8071 7.62726 18.1861 7.62564C18.604 7.62402 19.0284 7.62402 19.4398 7.62402H32.5373C32.9487 7.62402 33.3731 7.62402 33.791 7.62564C34.1376 7.62887 34.4956 7.63211 34.8471 7.64183C35.5306 7.66127 36.3389 7.70014 37.1472 7.84428C37.9506 7.98843 38.6649 8.22328 39.3322 8.5634C40.0174 8.91161 40.6442 9.36673 41.195 9.91578C41.7424 10.4648 42.1976 11.0916 42.5475 11.7783C42.8892 12.4505 43.1257 13.1664 43.2683 13.9648C43.414 14.773 43.4513 15.5812 43.4707 16.2647C43.4805 16.5951 43.4853 16.9417 43.4869 17.3207C43.4869 17.7353 43.4869 18.158 43.4869 18.5662V31.6705C43.4869 32.0819 43.4869 32.5062 43.4869 32.9241V32.9273C43.4837 33.2723 43.4805 33.6303 43.4707 33.9817C43.4513 34.6652 43.414 35.4734 43.2683 36.2816C43.1225 37.0865 42.886 37.8008 42.5475 38.4681C42.1944 39.1596 41.7392 39.7864 41.195 40.329C40.6475 40.8764 40.0206 41.3316 39.3322 41.683C38.66 42.0248 37.9457 42.2596 37.1472 42.4021C36.3389 42.5479 35.5306 42.5851 34.8471 42.6046C34.5166 42.6143 34.17 42.6192 33.791 42.6208C33.3731 42.6208 32.9487 42.6208 32.5373 42.6208L32.5389 42.624ZM19.4398 7.64021C19.0284 7.64021 18.604 7.64021 18.1861 7.64183C17.8071 7.64345 17.4605 7.64831 17.13 7.65803C16.4465 7.67746 15.6398 7.71471 14.8332 7.86048C14.0363 8.00301 13.322 8.23785 12.6514 8.57959C11.9613 8.93105 11.3361 9.38454 10.7919 9.92874C10.2476 10.4729 9.79247 11.0997 9.4426 11.7881C9.10407 12.4537 8.86758 13.168 8.72181 13.9713C8.57441 14.7908 8.53715 15.6298 8.52095 16.2679C8.51124 16.5983 8.50638 16.9449 8.50476 17.3239C8.50152 17.7418 8.50152 18.1661 8.50152 18.5775V31.6738C8.50152 32.0851 8.50152 32.5095 8.50476 32.9273C8.50638 33.3063 8.51124 33.6529 8.52095 33.9833C8.54039 34.6668 8.57765 35.4734 8.72342 36.28C8.86596 37.0801 9.10245 37.7943 9.44422 38.4632C9.79409 39.1499 10.2476 39.7751 10.7935 40.3209C11.3377 40.8667 11.963 41.3218 12.653 41.6717C13.3187 42.0118 14.033 42.2466 14.8348 42.3908C15.6415 42.5349 16.4497 42.5738 17.1317 42.5932C17.4815 42.603 17.8395 42.6062 18.1845 42.6094H18.1877C18.6056 42.6111 19.03 42.6111 19.4414 42.6111H32.5389C32.9503 42.6111 33.3747 42.6111 33.7926 42.6111C34.1733 42.6094 34.5183 42.6046 34.8487 42.5949C35.5322 42.5754 36.3389 42.5366 37.1455 42.3924C37.9425 42.2499 38.6568 42.015 39.3274 41.6733C40.0141 41.3235 40.6394 40.8684 41.1869 40.3225C41.7311 39.78 42.1846 39.1564 42.5361 38.4648C42.8747 37.7992 43.1112 37.0849 43.2569 36.2816C43.4011 35.4734 43.44 34.6668 43.4594 33.985C43.4691 33.6351 43.4724 33.2772 43.4756 32.9322C43.4756 32.5127 43.4756 32.0868 43.4756 31.677V18.5807C43.4756 18.1694 43.4756 17.745 43.4724 17.3272C43.4707 16.9466 43.4659 16.6016 43.4562 16.2712C43.4367 15.5877 43.3978 14.7811 43.2537 13.9745C43.1111 13.1777 42.8747 12.4634 42.5329 11.7913C42.183 11.1046 41.7295 10.4794 41.1836 9.93198C40.6345 9.38454 40.0093 8.93105 39.3241 8.58283C38.6584 8.24271 37.9441 8.00787 37.1423 7.86372C36.3356 7.71957 35.5274 7.6807 34.8455 7.66127C34.494 7.65155 34.136 7.64831 33.791 7.64507C33.3715 7.64345 32.9471 7.64345 32.5357 7.64345H19.4382L19.4398 7.64021Z" fill="#969696"/>
<path d="M21.5581 36.2527V19.9771H20.8745L16.7279 22.7224V23.4172L20.8275 20.7335H20.8761V36.2543H21.5581V36.2527Z" fill="black"/>
<path d="M25.6086 19.9771V20.6007H34.5497V20.6492L27.3692 36.2543H28.137L35.2575 20.6363V19.9771H25.6086Z" fill="black"/>
<path d="M14.8532 16.7858V13.2662H14.8661L16.2575 16.4263H16.7191L18.1055 13.2662H18.1217V16.7858H18.5833V12.1244H18.0942L16.4972 15.8594H16.4842L14.8823 12.126H14.3932V16.7858H14.8532Z" fill="#FF0000"/>
<path d="M21.0939 13.1482C20.1204 13.1482 19.5795 13.856 19.5795 14.8149V15.1664C19.5795 16.1301 20.1156 16.8411 21.0939 16.8411C22.0722 16.8411 22.6034 16.1301 22.6034 15.1664V14.8149C22.6034 13.856 22.0641 13.1482 21.0939 13.1482ZM21.0939 13.5888C21.7288 13.5888 22.1013 14.0633 22.1013 14.8392V15.1404C22.1013 15.9195 21.7288 16.3941 21.0939 16.3941C20.459 16.3941 20.0832 15.9163 20.0832 15.1404V14.8392C20.0832 14.065 20.4557 13.5888 21.0939 13.5888Z" fill="#FF0000"/>
<path d="M23.5443 16.7846H24.0464V14.5932C24.0464 14.0813 24.3266 13.6084 24.9826 13.6084C25.6386 13.6084 25.9026 13.9469 25.9026 14.5575V16.7814H26.4047V14.4814C26.4047 13.6133 25.854 13.1452 25.117 13.1452C24.3801 13.1452 24.1938 13.4529 24.061 13.6926H24.0464V13.2035H23.5443V16.7846Z" fill="#FF0000"/>
<path d="M28.7129 13.1451C27.8237 13.1451 27.2811 13.8384 27.2811 14.8086V15.1746C27.2811 16.1626 27.7832 16.838 28.7129 16.838C29.6426 16.838 29.594 16.5789 29.7852 16.2258H29.7981V16.783H30.2727V11.8737H29.7706V13.7185H29.7576C29.5843 13.4091 29.215 13.1451 28.7129 13.1451ZM28.7583 13.5938C29.3932 13.5938 29.7836 14.0927 29.7836 14.8312V15.1633C29.7836 15.9326 29.4045 16.3926 28.7648 16.3926C28.125 16.3926 27.7849 15.9796 27.7849 15.16V14.8361C27.7849 14.0003 28.2044 13.5938 28.7583 13.5938Z" fill="#FF0000"/>
<path d="M33.3845 16.3196H33.3975V16.7844H33.8866V14.2966C33.8866 13.5612 33.3473 13.1482 32.6022 13.1482C31.8572 13.1482 31.3453 13.5823 31.3032 14.2043H31.7778C31.8183 13.8252 32.0888 13.5823 32.5812 13.5823C33.0736 13.5823 33.3845 13.8528 33.3845 14.3549V14.7404H32.4111C31.5948 14.7436 31.1639 15.1404 31.1639 15.7592C31.1639 16.3779 31.6385 16.8427 32.3334 16.8427C32.8792 16.8411 33.2128 16.6063 33.3845 16.3196ZM32.4516 16.4087C32.0483 16.4087 31.6822 16.1932 31.6822 15.7494C31.6822 15.3056 31.9041 15.1518 32.4273 15.1518H33.3845V15.5923C33.3845 16.0734 32.9845 16.4087 32.4516 16.4087Z" fill="#FF0000"/>
<path d="M37.5839 13.2067H37.0478L36.0258 16.1999H36.0079L34.9859 13.2067H34.4271L35.7634 16.8413L35.6953 17.0599C35.5901 17.4292 35.4087 17.6446 34.9875 17.6446C34.5664 17.6446 34.7818 17.6349 34.7251 17.6236V18.0512C34.8142 18.0641 34.947 18.0787 35.0669 18.0787C35.7634 18.0787 36.0031 17.6009 36.191 17.0842L36.293 16.817L37.5839 13.2067Z" fill="#FF0000"/>
</svg>
