<svg width="51" height="51" viewBox="0 0 51 51" fill="none" xmlns="http://www.w3.org/2000/svg">
<path d="M7.75262 7.62412C7.57026 7.62177 7.3896 7.65929 7.22331 7.73404C7.05703 7.8088 6.90915 7.91897 6.79007 8.05683C6.67099 8.19469 6.58359 8.3569 6.53401 8.53206C6.48442 8.70721 6.47386 8.89108 6.50305 9.07075L11.8075 41.2085C11.8736 41.6017 12.0764 41.9592 12.3803 42.218C12.6842 42.4769 13.0698 42.6206 13.4694 42.6239H38.9168C39.2164 42.6278 39.5073 42.5241 39.7366 42.3318C39.966 42.1395 40.1185 41.8714 40.1664 41.5763L45.4708 9.07699C45.5 8.89732 45.4895 8.71345 45.4399 8.53829C45.3903 8.36313 45.3029 8.20093 45.1838 8.06307C45.0647 7.92521 44.9169 7.81503 44.7506 7.74028C44.5843 7.66553 44.4036 7.62801 44.2213 7.63035L7.75262 7.62412ZM30.0886 30.8513H21.9665L19.7672 19.3842H32.0567L30.0886 30.8513Z" fill="#2684FF"/>
<path d="M43.7843 19.3841H32.0571L30.089 30.8512H21.9668L12.3764 42.2122C12.6803 42.4745 13.0679 42.6204 13.4697 42.6238H38.9234C39.2229 42.6276 39.5139 42.5239 39.7432 42.3317C39.9726 42.1394 40.1251 41.8713 40.173 41.5762L43.7843 19.3841Z" fill="url(#paint0_linear_115_1543)"/>
<defs>
<linearGradient id="paint0_linear_115_1543" x1="46.4958" y1="22.5954" x2="27.1441" y2="37.7286" gradientUnits="userSpaceOnUse">
<stop offset="0.18" stop-color="#0052CC"/>
<stop offset="1" stop-color="#2684FF"/>
</linearGradient>
</defs>
</svg>
