<svg width="51" height="51" viewBox="0 0 51 51" fill="none" xmlns="http://www.w3.org/2000/svg">
<path fill-rule="evenodd" clip-rule="evenodd" d="M25.9222 7.62401C31.5821 7.62401 36.5121 11.0212 38.6107 15.9471L38.7814 15.998C44.4012 17.7098 48.4869 22.8825 48.4869 29.0029C48.4869 36.5301 42.3121 42.6093 34.7229 42.6093H17.965C17.6994 42.628 17.4575 42.6299 17.1722 42.609C9.6192 42.5672 3.48694 36.504 3.48694 29.0029C3.48694 22.9408 7.49797 17.8006 13.0466 16.0432L13.2152 15.991L13.2836 15.8319C15.4095 10.9683 20.3065 7.62401 25.9222 7.62401ZM25.9222 9.9835C20.874 9.9835 16.5308 13.242 15.0592 17.8217L15.0118 17.9732L14.8553 18.005C9.70626 19.092 5.85533 23.6085 5.85533 29.0029C5.85533 35.1586 10.8619 40.1491 17.0627 40.2483L17.259 40.2487L17.3284 40.2546L17.4374 40.2613C17.5797 40.2674 17.7124 40.2632 17.8724 40.2498H34.7229C41.0103 40.2498 46.1186 35.2207 46.1186 29.0029C46.1186 23.5012 42.1157 18.9206 36.8247 17.9469C35.3926 13.3014 31.0164 9.9835 25.9222 9.9835ZM25.9222 12.343C21.3186 12.343 17.5199 15.7356 16.9649 20.1199C12.1117 20.2686 8.22378 24.1888 8.22378 29.0029C8.22378 33.8622 12.185 37.8106 17.1017 37.8891L17.3169 37.8908L17.412 37.8941C17.5378 37.9014 17.5253 37.9144 17.7626 37.8903H34.7229L34.8722 37.8891C39.7889 37.8106 43.7501 33.8622 43.7501 29.0029C43.7501 24.1459 39.7927 20.1989 34.8792 20.1168C34.3227 15.7341 30.5247 12.343 25.9222 12.343Z" fill="black"/>
</svg>
