<svg width="51" height="51" viewBox="0 0 51 51" fill="none" xmlns="http://www.w3.org/2000/svg">
<path d="M26.499 14.1659L30.7731 10.4665C30.6818 10.4112 30.2789 10.0489 30.1038 9.92363C29.9352 9.80458 29.7702 9.68757 29.6799 9.63812C28.2524 8.84816 26.8614 8.31559 25.1633 7.99452L23.6974 12.7128C24.8203 13.0515 25.6138 13.5019 26.4978 14.1674L26.499 14.1659Z" fill="url(#paint0_linear_115_1551)"/>
<path d="M19.5182 12.2221C20.4852 12.1552 21.4181 12.2106 22.3033 12.3691L23.7392 7.74278C22.6668 7.61713 21.5543 7.58986 20.4118 7.66725C19.3326 7.74345 18.2769 7.91364 17.2506 8.16392L18.794 12.2958C19.0333 12.2653 19.2747 12.2365 19.5182 12.2213V12.2221Z" fill="url(#paint1_linear_115_1551)"/>
<path d="M17.2132 12.6118L15.7166 8.60655C13.6377 9.3022 11.7161 10.3411 10.0355 11.6428L13.5288 14.2946C14.6343 13.5472 15.8814 12.9706 17.2132 12.6118Z" fill="url(#paint2_linear_115_1551)"/>
<path d="M11.9124 15.6022L8.47305 12.9903C6.74877 14.6586 5.37707 16.6317 4.48694 18.7861L9.47684 19.0367C10.046 17.7643 10.8791 16.5982 11.9124 15.6022Z" fill="url(#paint3_linear_115_1551)"/>
<path d="M19.3713 31.6826L17.532 38.2797C18.2346 38.3144 18.9502 38.3113 19.6789 38.2597C23.0044 38.0306 26.1224 36.9212 28.7619 35.2065L24.3302 30.0789C22.8496 30.9409 21.1625 31.5092 19.371 31.6826H19.3713ZM10.9817 28.8072L5.86124 32.2939C7.82375 34.9969 10.8056 36.9705 14.3575 37.8274L16.1115 31.5361C14.0666 31.1385 12.2894 30.1722 10.9817 28.8072Z" fill="#808080"/>
<path d="M21.0485 24.3914C19.2357 25.6948 16.8568 25.6743 15.4195 24.473L25.8891 17.5285C25.7799 17.3872 25.6724 17.2491 25.5512 17.1165C22.802 14.0848 17.7575 13.8631 14.2864 16.4818C10.8938 19.0427 10.1412 23.4789 12.5935 26.5171C15.1209 29.6477 20.1551 30.2165 23.8447 27.6488C24.9642 26.8716 25.8072 25.8996 26.384 24.8412L21.8651 23.6558C21.6262 23.9183 21.3634 24.1689 21.0545 24.3891L21.0485 24.3914ZM16.0695 18.4869C17.5133 17.4116 19.3631 17.1725 20.8076 17.7611L14.233 22.2131C14.1162 20.8905 14.7637 19.4613 16.0697 18.4842L16.0695 18.4869Z" fill="#C80000"/>
<path d="M36.3875 24.7589C36.3678 24.8825 36.3414 25.007 36.3067 25.1297L36.1231 25.6814C35.3023 28.4156 33.7186 30.9186 31.6008 32.9616L27.157 27.8168C28.2987 26.573 29.14 25.1148 29.5837 23.5286C29.5973 23.4812 29.6315 23.344 29.6485 23.2712L29.6605 23.2221L24.7064 22.1011L34.9064 16.1472L41.7205 25.9688L36.3893 24.7563L36.3875 24.7589Z" fill="#808080"/>
<g opacity="0.5" filter="url(#filter0_f_115_1551)">
<path d="M47.487 41.6063C47.487 42.1697 38.235 42.624 26.8222 42.624C15.4083 42.624 6.15613 42.1697 6.15613 41.6063C6.15613 41.0441 15.4083 40.5894 26.8222 40.5894C38.235 40.5894 47.487 41.0439 47.487 41.6063Z" fill="url(#paint4_linear_115_1551)"/>
</g>
<defs>
<filter id="filter0_f_115_1551" x="4.86248" y="39.2958" width="43.9181" height="4.6219" filterUnits="userSpaceOnUse" color-interpolation-filters="sRGB">
<feFlood flood-opacity="0" result="BackgroundImageFix"/>
<feBlend mode="normal" in="SourceGraphic" in2="BackgroundImageFix" result="shape"/>
<feGaussianBlur stdDeviation="0.646824" result="effect1_foregroundBlur_115_1551"/>
</filter>
<linearGradient id="paint0_linear_115_1551" x1="27.4597" y1="10.1632" x2="24.7215" y2="27.8253" gradientUnits="userSpaceOnUse">
<stop stop-color="#BE0000"/>
<stop offset="1" stop-color="#808080"/>
</linearGradient>
<linearGradient id="paint1_linear_115_1551" x1="20.3212" y1="9.05634" x2="17.5832" y2="26.7167" gradientUnits="userSpaceOnUse">
<stop stop-color="#BE0000"/>
<stop offset="1" stop-color="#808080"/>
</linearGradient>
<linearGradient id="paint2_linear_115_1551" x1="14.2559" y1="8.11479" x2="11.5185" y2="25.7713" gradientUnits="userSpaceOnUse">
<stop stop-color="#BE0000"/>
<stop offset="1" stop-color="#808080"/>
</linearGradient>
<linearGradient id="paint3_linear_115_1551" x1="9.73964" y1="7.41497" x2="7.0017" y2="25.075" gradientUnits="userSpaceOnUse">
<stop stop-color="#BE0000"/>
<stop offset="1" stop-color="#808080"/>
</linearGradient>
<linearGradient id="paint4_linear_115_1551" x1="6.44982" y1="41.6068" x2="45.8255" y2="41.6068" gradientUnits="userSpaceOnUse">
<stop stop-color="white"/>
<stop offset="0.438"/>
<stop offset="1" stop-color="white"/>
</linearGradient>
</defs>
</svg>
