<svg width="51" height="51" viewBox="0 0 51 51" fill="none" xmlns="http://www.w3.org/2000/svg">
<path d="M25.9869 42.624C16.322 42.624 8.48694 34.789 8.48694 25.124C8.48694 15.459 16.322 7.62401 25.9869 7.62401C35.6519 7.62401 43.4869 15.459 43.4869 25.124C43.4869 34.789 35.6519 42.624 25.9869 42.624ZM25.9869 40.4365C34.4438 40.4365 41.2994 33.5809 41.2994 25.124C41.2994 16.6671 34.4438 9.81151 25.9869 9.81151C17.5301 9.81151 10.6744 16.6671 10.6744 25.124C10.6744 33.5809 17.5301 40.4365 25.9869 40.4365Z" fill="#333333"/>
<path d="M24.6972 23.8364L24.699 23.8349C24.7876 23.7465 24.8852 23.6672 24.9904 23.5985L31.5292 18.2936C31.6942 18.1288 31.9221 18.0267 32.1737 18.0267C32.6771 18.0267 33.0852 18.4348 33.0852 18.9382C33.0852 19.1899 32.9832 19.4177 32.8182 19.5827L27.5134 26.1215C27.4447 26.2267 27.3654 26.3243 27.277 26.4129L27.2756 26.4147C26.9455 26.7444 26.4898 26.9485 25.9864 26.9485C24.9796 26.9485 24.1635 26.1323 24.1635 25.1255C24.1635 24.6222 24.3673 24.1663 24.6972 23.8364Z" fill="#333333"/>
<path d="M25.9864 18.1955C26.9932 18.1955 27.8093 17.3794 27.8093 16.3726C27.8093 15.3658 26.9932 14.5497 25.9864 14.5497C24.9796 14.5497 24.1635 15.3658 24.1635 16.3726C24.1635 17.3794 24.9796 18.1955 25.9864 18.1955Z" fill="#333333"/>
<path d="M34.7356 26.946C35.7424 26.946 36.5586 26.1299 36.5586 25.1231C36.5586 24.1163 35.7424 23.3002 34.7356 23.3002C33.7289 23.3002 32.9127 24.1163 32.9127 25.1231C32.9127 26.1299 33.7289 26.946 34.7356 26.946Z" fill="#333333"/>
<path d="M32.1725 33.1341C33.1792 33.1341 33.9954 32.3179 33.9954 31.3111C33.9954 30.3044 33.1792 29.4882 32.1725 29.4882C31.1657 29.4882 30.3495 30.3044 30.3495 31.3111C30.3495 32.3179 31.1657 33.1341 32.1725 33.1341Z" fill="#333333"/>
<path d="M25.9864 35.6979C26.9932 35.6979 27.8093 34.8817 27.8093 33.875C27.8093 32.8682 26.9932 32.0521 25.9864 32.0521C24.9796 32.0521 24.1635 32.8682 24.1635 33.875C24.1635 34.8817 24.9796 35.6979 25.9864 35.6979Z" fill="#333333"/>
<path d="M19.8003 33.1341C20.8071 33.1341 21.6232 32.3179 21.6232 31.3111C21.6232 30.3044 20.8071 29.4882 19.8003 29.4882C18.7936 29.4882 17.9774 30.3044 17.9774 31.3111C17.9774 32.3179 18.7936 33.1341 19.8003 33.1341Z" fill="#333333"/>
<path d="M17.2372 26.946C18.244 26.946 19.0601 26.1299 19.0601 25.1231C19.0601 24.1163 18.244 23.3002 17.2372 23.3002C16.2304 23.3002 15.4143 24.1163 15.4143 25.1231C15.4143 26.1299 16.2304 26.946 17.2372 26.946Z" fill="#333333"/>
<path d="M19.8003 20.7594C20.8071 20.7594 21.6232 19.9433 21.6232 18.9365C21.6232 17.9297 20.8071 17.1136 19.8003 17.1136C18.7936 17.1136 17.9774 17.9297 17.9774 18.9365C17.9774 19.9433 18.7936 20.7594 19.8003 20.7594Z" fill="#333333"/>
</svg>
