<svg width="51" height="51" viewBox="0 0 51 51" fill="none" xmlns="http://www.w3.org/2000/svg">
<path d="M25.9805 25.1302C25.9805 21.9147 28.5506 19.2946 31.7337 19.2946C34.9039 19.2946 37.4869 21.9014 37.4869 25.1302C37.4869 28.3457 34.9169 30.9658 31.7337 30.9658C28.5636 30.9658 25.9805 28.3457 25.9805 25.1302Z" fill="#1ABCFE"/>
<path d="M14.4869 36.7884C14.4869 33.5729 17.057 30.9528 20.2401 30.9528H25.9933V36.7884C25.9933 40.0039 23.4233 42.624 20.2401 42.624C17.057 42.624 14.4869 40.0172 14.4869 36.7884Z" fill="#0ACF83"/>
<path d="M25.9805 7.63724V19.2952H31.7337C34.9039 19.2952 37.4869 16.6884 37.4869 13.4596C37.4869 10.2441 34.9169 7.62401 31.7337 7.62401H25.9805V7.63724Z" fill="#FF7262"/>
<path d="M14.4869 13.472C14.4869 16.6875 17.057 19.3076 20.2401 19.3076H25.9933V7.63643H20.2401C17.057 7.63643 14.4869 10.2433 14.4869 13.472Z" fill="#F24E1E"/>
<path d="M14.4869 25.1302C14.4869 28.3457 17.057 30.9658 20.2401 30.9658H25.9933V19.2946H20.2401C17.057 19.2946 14.4869 21.9147 14.4869 25.1302Z" fill="#A259FF"/>
</svg>
