<svg width="51" height="51" viewBox="0 0 51 51" fill="none" xmlns="http://www.w3.org/2000/svg">
<path d="M43.3859 21.4777L43.3374 21.3471L38.4379 8.44384C38.3387 8.19049 38.1622 7.97556 37.934 7.83018C37.7638 7.72014 37.5703 7.65189 37.3692 7.63092C37.1681 7.60995 36.965 7.63684 36.776 7.70943C36.5871 7.78201 36.4176 7.89828 36.2812 8.04892C36.1447 8.19955 36.0452 8.38036 35.9904 8.57684L32.6832 18.7991H19.2904L15.9832 8.57684C15.928 8.38065 15.8282 8.20018 15.6917 8.04984C15.5552 7.89949 15.3858 7.78343 15.197 7.7109C15.0082 7.63837 14.8052 7.61139 14.6043 7.6321C14.4033 7.65281 14.2099 7.72064 14.0395 7.83018C13.8113 7.97556 13.6349 8.19049 13.5357 8.44384L8.63847 21.3494L8.58762 21.4777C7.88257 23.3381 7.79571 25.3795 8.34014 27.294C8.88457 29.2086 10.0308 30.8926 11.6059 32.092L11.6244 32.106L11.666 32.1387L19.1193 37.7783L22.8171 40.5993L25.0635 42.3143C25.3271 42.5153 25.6484 42.624 25.9787 42.624C26.309 42.624 26.6303 42.5153 26.8939 42.3143L29.1403 40.5993L32.8381 37.7783L40.3445 32.106L40.3653 32.0897C41.9404 30.8907 43.0867 29.2073 43.6316 27.2932C44.1764 25.3791 44.0902 23.3381 43.3859 21.4777Z" fill="#E24329"/>
<path d="M43.3864 21.4786L43.3379 21.348C40.9507 21.8425 38.7014 22.864 36.7512 24.3393L25.993 32.5525L32.8431 37.7792L40.3496 32.1069L40.3704 32.0905C41.9447 30.8909 43.0901 29.2072 43.6341 27.2932C44.1781 25.3792 44.0911 23.3385 43.3864 21.4786Z" fill="#FC6D26"/>
<path d="M19.1194 37.7772L22.8172 40.5981L25.0636 42.3131C25.3272 42.5141 25.6485 42.6229 25.9788 42.6229C26.3091 42.6229 26.6304 42.5141 26.894 42.3131L29.1404 40.5981L32.8381 37.7772L25.988 32.5505L19.1194 37.7772Z" fill="#FCA326"/>
<path d="M15.2228 24.3396C13.2733 22.8651 11.0248 21.8443 8.63847 21.3506L8.58762 21.4789C7.88257 23.3393 7.79571 25.3807 8.34014 27.2952C8.88457 29.2098 10.0308 30.8937 11.6059 32.0932L11.6244 32.1072L11.666 32.1398L19.1193 37.7795L25.9741 32.5528L15.2228 24.3396Z" fill="#FC6D26"/>
</svg>
