<svg width="51" height="51" viewBox="0 0 51 51" fill="none" xmlns="http://www.w3.org/2000/svg">
<path d="M29.3618 7.62402H15.0185C13.6677 7.62402 12.4869 8.79018 12.4869 10.1243V40.1237C12.4869 41.4565 13.6677 42.624 15.0185 42.624H36.9551C38.3045 42.624 39.4867 41.4579 39.4867 40.1237V17.6238L33.5801 13.4576L29.3618 7.62402Z" fill="#673AB7"/>
<path d="M22.6117 33.4557H32.7366V31.7898H22.6117V33.4557ZM22.6117 22.623V24.2889H32.7366V22.623H22.6117ZM21.0922 23.4573C21.0922 24.1237 20.5862 24.7901 19.7428 24.7901C18.8994 24.7901 18.3934 24.2903 18.3934 23.4573C18.3934 22.6244 18.8994 22.1246 19.7428 22.1246C20.5862 22.1246 21.0922 22.7895 21.0922 23.4573ZM21.0922 28.1233C21.0922 28.7897 20.5862 29.4561 19.7428 29.4561C18.8994 29.4561 18.3934 28.9563 18.3934 28.1233C18.3934 27.2904 18.8994 26.7906 19.7428 26.7906C20.5862 26.7906 21.0922 27.457 21.0922 28.1233ZM21.0922 32.6228C21.0922 33.2891 20.5862 33.9555 19.7428 33.9555C18.8994 33.9555 18.3934 33.4557 18.3934 32.6228C18.3934 31.7898 18.8994 31.29 19.7428 31.29C20.5862 31.29 21.0922 31.9564 21.0922 32.6228ZM22.6117 29.2895H32.7366V27.6222H22.6117V29.2895Z" fill="#F1F1F1"/>
<path d="M30.0368 16.9573L39.4869 26.1242V17.6237L30.0368 16.9573Z" fill="url(#paint0_linear_115_1561)"/>
<path d="M29.362 7.62402V15.1235C29.362 16.4563 30.5427 17.6238 31.8936 17.6238H39.4869L29.362 7.62402Z" fill="#B39DDB"/>
<path d="M15.0185 7.62402C13.6677 7.62402 12.4869 8.79018 12.4869 10.1243V10.2909C12.4869 8.95677 13.6677 7.79062 15.0185 7.79062H29.3618V7.62402H15.0185Z" fill="white" fill-opacity="0.2"/>
<path d="M36.9551 42.4561H15.0185C13.6677 42.4561 12.4869 41.2899 12.4869 39.9557V40.1223C12.4869 41.4551 13.6677 42.6226 15.0185 42.6226H36.9551C38.3045 42.6226 39.4867 41.4565 39.4867 40.1223V39.9557C39.4867 41.2899 38.3045 42.4561 36.9551 42.4561Z" fill="#311B92" fill-opacity="0.2"/>
<path d="M31.8919 17.6241C30.5424 17.6241 29.3603 16.4579 29.3603 15.1238V15.2904C29.3603 16.6231 30.541 17.7907 31.8919 17.7907H39.4852V17.6241H31.8919Z" fill="#311B92" fill-opacity="0.1"/>
<path d="M29.3618 7.62402H15.0185C13.6677 7.62402 12.4869 8.79018 12.4869 10.1243V40.1237C12.4869 41.4565 13.6677 42.624 15.0185 42.624H36.9551C38.3045 42.624 39.4867 41.4579 39.4867 40.1237V17.6238L29.3618 7.62402Z" fill="url(#paint1_radial_115_1561)"/>
<defs>
<linearGradient id="paint0_linear_115_1561" x1="34.7612" y1="17.6869" x2="34.7612" y2="26.1592" gradientUnits="userSpaceOnUse">
<stop stop-color="#311B92" stop-opacity="0.2"/>
<stop offset="1" stop-color="#311B92" stop-opacity="0.02"/>
</linearGradient>
<radialGradient id="paint1_radial_115_1561" cx="0" cy="0" r="1" gradientUnits="userSpaceOnUse" gradientTransform="translate(13.3411 8.55807) scale(348.263 343.957)">
<stop stop-color="white" stop-opacity="0.1"/>
<stop offset="1" stop-color="white" stop-opacity="0"/>
</radialGradient>
</defs>
</svg>
