<svg width="51" height="51" viewBox="0 0 51 51" fill="none" xmlns="http://www.w3.org/2000/svg">
<path d="M35.1971 15.9143L26.9077 14.9933L16.7761 15.9143L15.8549 25.1249L16.7759 34.3355L25.9865 35.4868L35.1971 34.3355L36.1181 24.8947L35.1971 15.9143Z" fill="white"/>
<path d="M20.5554 30.2032C19.867 29.738 19.3903 29.0588 19.1301 28.1607L20.7282 27.5022C20.8732 28.0549 21.1265 28.4831 21.488 28.7871C21.8473 29.091 22.2848 29.2407 22.796 29.2407C23.3187 29.2407 23.7677 29.0818 24.1429 28.764C24.5181 28.4462 24.7071 28.0409 24.7071 27.5505C24.7071 27.0486 24.509 26.6386 24.113 26.321C23.717 26.0033 23.2196 25.8443 22.6255 25.8443H21.7022V24.2624H22.531C23.0422 24.2624 23.4729 24.1244 23.8229 23.848C24.1729 23.5717 24.3479 23.1941 24.3479 22.7128C24.3479 22.2846 24.1912 21.9437 23.8782 21.6882C23.5651 21.4327 23.1689 21.3037 22.6876 21.3037C22.2179 21.3037 21.8448 21.4281 21.5685 21.6791C21.2922 21.93 21.0918 22.2386 20.9653 22.6024L19.3835 21.9439C19.5929 21.3497 19.9776 20.8247 20.5416 20.3711C21.1058 19.9175 21.8265 19.6895 22.7015 19.6895C23.3484 19.6895 23.931 19.8139 24.4469 20.0649C24.9626 20.3158 25.3679 20.6636 25.6604 21.1056C25.9528 21.5499 26.0979 22.0475 26.0979 22.5999C26.0979 23.1641 25.9621 23.6407 25.6903 24.0321C25.4185 24.4236 25.0846 24.7229 24.6886 24.9325V25.0268C25.2113 25.2456 25.6373 25.5795 25.9734 26.0285C26.3073 26.4776 26.4753 27.0141 26.4753 27.6405C26.4753 28.2668 26.3164 28.8263 25.9986 29.3168C25.6808 29.8073 25.2411 30.1941 24.6839 30.4749C24.1244 30.7558 23.4958 30.8986 22.7981 30.8986C21.9899 30.9009 21.2439 30.6683 20.5554 30.2032Z" fill="#1A73E8"/>
<path d="M30.3634 22.2743L28.6179 23.543L27.7407 22.2122L30.8884 19.9417H32.095V30.6512H30.3634V22.2743Z" fill="#1A73E8"/>
<path d="M35.1974 42.624L43.4868 34.3346L39.3421 32.4926L35.1974 34.3346L33.3553 38.4793L35.1974 42.624Z" fill="#EA4335"/>
<path d="M14.9342 38.4792L16.7763 42.6239H35.1973V34.3345H16.7763L14.9342 38.4792Z" fill="#34A853"/>
<path d="M11.2502 7.62402C9.72367 7.62402 8.48712 8.86057 8.48712 10.3871V34.3344L12.6318 36.1765L16.7765 34.3344V15.9134H35.1975L37.0396 11.7687L35.1977 7.62402H11.2502Z" fill="#4285F4"/>
<path d="M8.48712 34.3345V39.8608C8.48712 41.3875 9.72367 42.6239 11.2502 42.6239H16.7765V34.3345H8.48712Z" fill="#188038"/>
<path d="M35.1967 15.9132V34.3342H43.4861V15.9132L39.3414 14.0711L35.1967 15.9132Z" fill="#FBBC04"/>
<path d="M43.4861 15.9134V10.3871C43.4861 8.8604 42.2496 7.62402 40.723 7.62402H35.1967V15.9134H43.4861Z" fill="#1967D2"/>
</svg>
