<svg width="51" height="51" viewBox="0 0 51 51" fill="none" xmlns="http://www.w3.org/2000/svg">
<path d="M38.4868 40.6403C38.4864 41.1663 38.2784 41.6706 37.9085 42.0425C37.5386 42.4145 37.037 42.6236 36.5138 42.624H15.4615C14.9384 42.624 14.4366 42.4153 14.0664 42.0437C13.6962 41.672 13.4878 41.1679 13.4869 40.6419V9.66195C13.4867 9.40118 13.5377 9.14293 13.6368 8.90198C13.736 8.66102 13.8814 8.44209 14.0648 8.2577C14.2482 8.07331 14.466 7.92709 14.7056 7.82739C14.9453 7.7277 15.2022 7.67649 15.4615 7.6767H28.9723L38.4868 17.4322V40.6403Z" fill="#23A566"/>
<path d="M30.0187 17.1778L38.4861 25.3147V17.3753H30.9855C30.6581 17.3791 30.3353 17.2974 30.0486 17.1382L30.0187 17.1778Z" fill="#1C8F5A"/>
<path d="M38.487 17.4175H30.9659C30.4428 17.4171 29.9412 17.2079 29.5713 16.836C29.2013 16.4641 28.9933 15.9598 28.9929 15.4338V7.62402L38.487 17.4175Z" fill="#8ED1B1"/>
<path fill-rule="evenodd" clip-rule="evenodd" d="M32.4664 36.1828H19.4571V24.8419H32.4664V36.1828ZM26.7706 26.4779V28.4631H30.8676V26.481L26.7706 26.4779ZM26.7706 29.7134V31.6101H30.8676V29.7039L26.7706 29.7134ZM26.7706 32.8193V34.5753H30.8676V32.8098L26.7706 32.8193ZM25.1623 34.5658V32.8098H21.067V34.5658H25.1623ZM25.1623 31.5895V29.7039H21.067V31.599L25.1623 31.5895ZM25.1623 28.4836V26.4779H21.067V28.4631L25.1623 28.4836Z" fill="white"/>
</svg>
