<svg width="51" height="51" viewBox="0 0 51 51" fill="none" xmlns="http://www.w3.org/2000/svg">
<rect x="8.48694" y="7.62402" width="35" height="35" fill="#FA5D00"/>
<path fill-rule="evenodd" clip-rule="evenodd" d="M24.7527 27.6391V34.8208H23.559V24.0243C23.559 23.3586 24.0975 22.8355 24.7527 22.8355H28.2859V26.4264C28.2859 27.092 27.7713 27.6391 27.1161 27.6391H24.7527ZM35.3989 15.6064V33.6081C35.3989 34.2737 34.861 34.8208 34.2058 34.8208H33.0361V16.7952C33.0361 16.1296 33.5506 15.6064 34.2058 15.6064H35.3989ZM30.6726 15.6064H31.8424V33.6081C31.8424 34.2737 31.3045 34.8208 30.6726 34.8208H29.479V21.5988C29.479 20.9332 30.0175 20.41 30.6726 20.41V15.6064ZM21.1956 34.8208H20.0259V16.7952C20.0259 16.1296 20.5404 15.6064 21.1956 15.6064H22.3893V28.8045C22.3893 29.4701 21.8508 30.0172 21.1956 30.0172V34.8208ZM16.4694 34.8208V16.7952C16.4694 16.1296 17.0073 15.6064 17.6625 15.6064H18.8328V33.6081C18.8328 34.2737 18.3176 34.8208 17.6625 34.8208H16.4694Z" fill="white"/>
</svg>
