<svg width="51" height="51" viewBox="0 0 51 51" fill="none" xmlns="http://www.w3.org/2000/svg">
<path fill-rule="evenodd" clip-rule="evenodd" d="M23.7804 17.9649L13.6934 28.3059C12.4328 27.0132 11.6447 25.236 11.4869 23.1353C11.4869 21.1965 12.4326 19.2576 13.6934 17.9649L23.9382 7.62402C25.1991 8.91673 25.9869 10.8555 25.9869 12.7944C25.9869 14.7334 25.0415 16.6724 23.7807 17.9649H23.7804ZM28.2177 32.2832L38.4152 21.9421C39.6901 23.3963 40.4869 25.1738 40.4869 27.1126C40.4869 29.0515 39.5306 30.9905 38.2562 32.2832L28.0582 42.624C26.7836 41.3313 25.9869 39.3924 25.9869 37.4536C25.9869 35.5146 26.9429 33.5757 28.2177 32.2832ZM27.9676 17.9649L30.9785 14.9422L38.4267 7.62402C39.6945 8.89678 40.4867 10.8059 40.4867 12.7151C40.4867 14.6242 39.536 16.5331 38.2681 17.8059L30.9785 25.124L27.9676 28.1467L23.6892 32.4422L20.6783 35.4649L13.5472 42.624C12.2792 41.3513 11.4869 39.4421 11.4869 37.533C11.4869 35.6239 12.4378 33.7147 13.7056 32.4422L20.8367 25.283L23.689 22.2603L27.9676 17.9649Z" fill="#1292EE"/>
</svg>
