<svg width="51" height="51" viewBox="0 0 51 51" fill="none" xmlns="http://www.w3.org/2000/svg">
<path d="M40.3798 24.2495C39.6164 22.9158 38.5426 21.8465 37.2001 21.0415C36.1969 20.4484 35.1566 20.072 33.9843 19.9104V15.6724C35.1566 15.1669 35.8841 14.0481 35.8841 12.7429C35.8841 10.9639 34.4792 9.52231 32.7288 9.52231C30.9769 9.52231 29.5474 10.9639 29.5474 12.7429C29.5474 14.0481 30.233 15.1669 31.4053 15.6724V19.9123C30.4674 20.0499 29.4949 20.3468 28.6068 20.803C26.7928 19.4039 20.8446 14.8143 17.365 12.1337C17.4475 11.8315 17.5111 11.5201 17.5111 11.1915C17.5111 9.22112 15.9397 7.62402 13.9986 7.62402C12.0576 7.62402 10.4869 9.22112 10.4869 11.1915C10.4869 13.1617 12.0592 14.7593 14.0003 14.7593C14.6624 14.7593 15.2748 14.5626 15.8033 14.2393L16.5376 14.805L26.6277 22.1877C26.0943 22.685 25.5975 23.2507 25.2001 23.8855C24.3947 25.1795 23.9026 26.6033 23.9026 28.1563V28.4804C23.9026 29.5706 24.1066 30.5998 24.4541 31.5667C24.76 32.411 25.2074 33.1786 25.7614 33.8726L22.4126 37.2815C22.1156 37.1704 21.8035 37.1094 21.4778 37.1094C20.7529 37.1094 20.073 37.397 19.5602 37.9168C19.047 38.4379 18.7659 39.1301 18.7659 39.8667C18.7661 40.6031 19.0486 41.2952 19.5616 41.816C20.0744 42.3369 20.756 42.624 21.4814 42.624C22.2068 42.624 22.8886 42.3369 23.4018 41.816C23.9139 41.2952 24.1966 40.6029 24.1966 39.8667C24.1966 39.5817 24.1532 39.3036 24.0717 39.0394L27.533 35.524C28.0075 35.8568 28.52 36.1371 29.071 36.3787C30.1577 36.8558 31.3572 37.1466 32.6699 37.1466H32.9105C34.3618 37.1466 35.7308 36.8004 37.0177 36.0923C38.3738 35.344 39.4352 34.3207 40.237 33.0143C41.0431 31.7043 41.4869 30.257 41.4869 28.6646V28.5851C41.4869 27.0187 41.1299 25.5735 40.3798 24.2495ZM36.1507 31.6238C35.2112 32.6841 34.1313 33.3371 32.9105 33.3371H32.7093C32.012 33.3371 31.33 33.1414 30.6623 32.7855C29.9097 32.3936 29.3376 31.8346 28.8694 31.1267C28.3854 30.432 28.1228 29.6734 28.1228 28.8692V28.6249C28.1228 27.8342 28.2722 27.0844 28.6487 26.3764C29.0513 25.6023 29.595 25.0005 30.3181 24.5219C31.028 24.0467 31.7862 23.8136 32.6308 23.8136H32.7093C33.4751 23.8136 34.2 23.9669 34.8841 24.3224C35.5812 24.7014 36.1507 25.2193 36.5922 25.9004C37.021 26.5818 37.2761 27.3168 37.3581 28.1175C37.371 28.2839 37.3776 28.4544 37.3776 28.6173C37.3776 29.7039 36.9687 30.7103 36.1507 31.6238Z" fill="#F8761F"/>
</svg>
