<svg width="51" height="51" viewBox="0 0 51 51" fill="none" xmlns="http://www.w3.org/2000/svg">
<path d="M13.0902 37.9618L20.6842 42.4835C21.1144 42.7399 21.6546 42.6249 21.9719 42.2311C22.9277 41.0442 24.3709 40.286 25.9888 40.286C27.6079 40.286 29.052 41.0454 30.0084 42.2342C30.3254 42.6283 30.8644 42.7436 31.2955 42.4875L38.9283 37.9498C39.4342 37.6489 39.5773 36.9727 39.251 36.4749C38.8813 35.9111 38.4778 35.3714 38.043 34.8588C36.8936 33.5029 35.5054 32.3813 33.9906 31.4793L32.9738 30.8735L32.9102 30.8392C32.8504 30.8097 32.7907 30.7809 32.73 30.7521C32.5755 30.6792 32.4024 30.6587 32.2358 30.6936C32.0692 30.7285 31.9178 30.817 31.8035 30.9462C30.3642 32.5665 28.293 33.5851 25.9885 33.5851C23.6896 33.5851 21.6235 32.572 20.1843 30.9588C20.0707 30.8307 19.9201 30.7433 19.7547 30.7093C19.5892 30.6754 19.4175 30.6966 19.2646 30.7698L19.2586 30.7726L18.0704 31.4799C16.1605 32.615 14.4566 34.1022 13.1506 35.9274C13.014 36.1182 12.8817 36.312 12.7532 36.5089C12.4335 36.9984 12.5936 37.6658 13.0902 37.9618Z" fill="#294DFF"/>
<path d="M14.3254 12.2485C14.1193 12.3698 13.962 12.5624 13.8817 12.7918C13.8014 13.0213 13.8033 13.2726 13.887 13.5008C14.4147 14.9506 14.3307 16.6209 13.5141 18.0636C12.6979 19.5052 11.3187 20.4063 9.82981 20.6541C9.59518 20.692 9.38141 20.8145 9.22691 20.9997C9.07241 21.1849 8.98732 21.4205 8.98694 21.6644L8.98754 30.6422C8.98754 31.2308 9.46918 31.7065 10.0417 31.6688C12.2828 31.5216 14.468 30.8878 16.4527 29.8092L17.3822 29.2633C17.6352 29.1035 17.8835 28.936 18.1268 28.7612C18.2662 28.6621 18.3713 28.5201 18.427 28.3558C18.4828 28.1914 18.4862 28.0131 18.4369 27.8466C17.8211 25.7727 18.0118 23.4528 19.157 21.4306C20.3076 19.3984 22.1894 18.0768 24.2621 17.6057C24.5946 17.5303 24.8501 17.2484 24.8821 16.9006C24.9203 16.489 24.9439 16.0731 24.9514 15.6532L24.952 15.0196C24.9126 12.6521 24.3711 10.3219 23.3651 8.19111C23.1144 7.66082 22.4709 7.46821 21.9725 7.7605L14.3254 12.2485Z" fill="#1F95FF"/>
<path d="M38.4606 18.0638C37.6438 16.6211 37.5598 14.9508 38.0877 13.501C38.1715 13.2728 38.1734 13.0215 38.0931 12.792C38.0128 12.5626 37.8555 12.37 37.6494 12.2487L30.0017 7.7607C29.5033 7.4681 28.8594 7.66071 28.6091 8.19131C27.6031 10.3223 27.0615 12.6527 27.0219 15.0204L27.0225 15.6528C27.0303 16.0696 27.0535 16.4859 27.0921 16.9008C27.1244 17.2486 27.3799 17.5302 27.7121 17.6059C29.7848 18.0767 31.6662 19.3986 32.8172 21.4308C33.9621 23.4533 34.1533 25.7729 33.5372 27.8468C33.4879 28.0134 33.4913 28.1917 33.5471 28.3561C33.6028 28.5206 33.708 28.6626 33.8474 28.7617C34.0911 28.9358 34.3393 29.1032 34.5917 29.2638L35.5218 29.8094C37.5066 30.888 39.6919 31.5218 41.9331 31.669C42.5053 31.7067 42.9866 31.2313 42.9866 30.6424L42.9869 21.6643C42.9868 21.4205 42.9018 21.1849 42.7474 20.9997C42.593 20.8145 42.3792 20.692 42.1447 20.6543C40.6555 20.4061 39.2769 19.505 38.4606 18.0638Z" fill="#5FBBFF"/>
</svg>
