<svg width="51" height="51" viewBox="0 0 51 51" fill="none" xmlns="http://www.w3.org/2000/svg">
<path d="M26.0125 42.624C16.3726 42.624 8.48694 34.7269 8.48694 25.124C8.48694 15.47 16.3556 7.62402 26.0125 7.62402C35.6013 7.62402 43.4869 15.5212 43.4869 25.124C43.4869 34.7439 35.6013 42.624 26.0125 42.624Z" stroke="#F35A38" stroke-width="0.455679" stroke-miterlimit="10"/>
<path d="M34.5124 29.3881C33.8311 32.8677 30.7314 35.6138 27.1547 35.8355C23.4248 36.0913 19.8992 34.1298 18.5537 30.4286C18.145 29.337 18.0428 28.1942 18.0428 27.0002C18.0428 25.8574 18.0428 24.7658 18.0428 23.623C18.0428 22.5826 18.4005 22.2244 19.4394 22.2244C21.4151 22.2244 23.3737 22.2244 25.2983 22.2244C25.2983 22.2244 25.2983 22.2244 25.2983 22.1732C27.2228 22.1732 29.1304 22.1732 31.055 22.1732C31.9406 22.1732 32.8263 22.2244 33.6949 22.2244C34.2058 22.2244 34.6827 22.5826 34.6827 23.1113C34.7168 25.2775 34.9382 27.3584 34.5124 29.3881Z" fill="#F35A38"/>
<path d="M22.8445 21.183C24.0878 21.2342 24.4965 21.0807 24.5476 20.2961C24.5987 18.8975 24.5987 17.55 24.5476 16.1343C24.5476 15.6226 24.1389 15.2474 23.662 15.2474C23.3554 15.2474 23.0999 15.2474 22.7763 15.2474C22.2143 15.2474 21.8396 15.6567 21.7885 16.2367C21.7885 16.9189 21.7885 17.533 21.7885 18.2152C21.7885 18.8975 21.7885 19.5627 21.7885 20.2449C21.8566 20.8078 22.2313 21.1319 22.8445 21.183Z" fill="#F35A38"/>
<path d="M29.3343 21.1836C30.5265 21.1836 30.9864 20.9789 30.9864 20.2455C30.9864 18.8469 30.9864 17.4994 30.9864 16.0837C30.9864 15.572 30.5776 15.2479 30.0496 15.1968C29.7941 15.1968 29.4876 15.1968 29.2151 15.1968C28.5849 15.1968 28.2272 15.555 28.2272 16.1861C28.2272 16.8171 28.2272 17.4824 28.2272 18.1134C28.2272 18.7957 28.2272 19.4609 28.2272 20.1943C28.2954 20.8084 28.653 21.1836 29.3343 21.1836Z" fill="#F35A38"/>
</svg>
