<svg version="1.1" id="Layer_1" xmlns="http://www.w3.org/2000/svg" xmlns:xlink="http://www.w3.org/1999/xlink" x="0px" y="0px"
	 width="100%" viewBox="0 0 960 960" enable-background="new 0 0 960 960" xml:space="preserve">
<path fill="#080808" opacity="1.000000" stroke="none" 
	d="
M525.000000,961.000000 
	C350.000000,961.000000 175.500000,961.000000 1.000000,961.000000 
	C1.000000,641.000000 1.000000,321.000000 1.000000,1.000000 
	C321.000000,1.000000 641.000000,1.000000 961.000000,1.000000 
	C961.000000,321.000000 961.000000,641.000000 961.000000,961.000000 
	C815.833313,961.000000 670.666687,961.000000 525.000000,961.000000 
M244.498886,406.061279 
	C227.409607,406.061279 210.320343,406.061279 193.205353,406.061279 
	C193.205353,455.404327 193.205353,504.147675 193.205353,552.771362 
	C199.473740,552.771362 205.523361,552.771362 211.955933,552.771362 
	C211.955933,535.117859 211.955933,517.846619 211.955933,500.330597 
	C223.503632,500.330597 234.657135,500.494202 245.800964,500.237762 
	C249.471970,500.153259 251.413284,501.476349 253.295044,504.506958 
	C262.678955,519.619873 272.286530,534.594421 281.906036,549.559387 
	C282.809540,550.965027 284.291687,552.916992 285.596741,552.990540 
	C291.940826,553.348145 298.316132,553.152100 305.243805,553.152100 
	C293.160583,534.021301 281.567688,515.666870 270.005310,497.360779 
	C270.601929,496.854248 270.818604,496.531036 271.105621,496.446472 
	C289.520111,491.018799 301.303802,471.514648 300.429993,451.828003 
	C299.497498,430.818878 285.815338,412.476715 266.780579,407.776611 
	C259.960999,406.092682 252.607697,406.570251 244.498886,406.061279 
M669.064575,429.500031 
	C669.064575,470.616394 669.064575,511.732758 669.064575,552.930176 
	C702.575439,552.930176 735.671448,552.930176 768.720093,552.930176 
	C768.720093,547.454712 768.720093,542.212402 768.720093,536.570068 
	C741.693115,536.570068 714.951660,536.570068 688.068481,536.570068 
	C688.068481,519.564819 688.068481,502.970032 688.068481,485.899109 
	C710.994324,485.899109 733.725098,485.899109 756.588013,485.899109 
	C756.588013,480.519501 756.588013,475.619751 756.588013,470.199402 
	C733.599121,470.199402 710.879578,470.199402 688.189697,470.199402 
	C688.189697,454.110596 688.189697,438.548248 688.189697,422.601318 
	C714.598389,422.601318 740.687073,422.601318 766.843811,422.601318 
	C766.843811,416.953522 766.843811,411.697449 766.843811,406.334137 
	C734.209961,406.334137 701.816956,406.334137 669.064575,406.334137 
	C669.064575,413.902802 669.064575,421.201416 669.064575,429.500031 
M534.385986,466.854919 
	C516.977600,488.125092 499.912537,509.691376 481.968811,530.499939 
	C475.938049,537.493530 474.869171,544.525757 476.035797,552.939392 
	C514.698792,552.939392 553.281311,552.939392 591.930664,552.939392 
	C591.930664,547.476440 591.930664,542.233887 591.930664,536.493408 
	C561.165161,536.493408 530.650940,536.493408 499.271057,536.493408 
	C500.829773,534.486877 501.803101,533.196411 502.814972,531.936768 
	C530.249756,497.785126 557.454102,463.443542 585.312805,429.641144 
	C591.301758,422.374451 593.415894,415.237823 591.744934,406.421753 
	C553.814758,406.421753 515.784058,406.421753 477.799255,406.421753 
	C477.799255,412.043182 477.799255,417.299347 477.799255,423.129700 
	C508.626343,423.129700 539.107544,423.129700 570.109741,423.129700 
	C558.021423,437.932373 546.434082,452.121643 534.385986,466.854919 
M399.645111,415.563721 
	C399.645111,412.463684 399.645111,409.363647 399.645111,406.354065 
	C393.026703,406.354065 387.108124,406.354065 381.131622,406.354065 
	C381.131622,455.392181 381.131622,504.131927 381.131622,552.782104 
	C387.373352,552.782104 393.424133,552.782104 399.645111,552.782104 
	C399.645111,507.116302 399.645111,461.830566 399.645111,415.563721 
z"/>
<path fill="#FCFCFC" opacity="1.000000" stroke="none" 
	d="
M244.998444,406.061279 
	C252.607697,406.570251 259.960999,406.092682 266.780579,407.776611 
	C285.815338,412.476715 299.497498,430.818878 300.429993,451.828003 
	C301.303802,471.514648 289.520111,491.018799 271.105621,496.446472 
	C270.818604,496.531036 270.601929,496.854248 270.005310,497.360779 
	C281.567688,515.666870 293.160583,534.021301 305.243805,553.152100 
	C298.316132,553.152100 291.940826,553.348145 285.596741,552.990540 
	C284.291687,552.916992 282.809540,550.965027 281.906036,549.559387 
	C272.286530,534.594421 262.678955,519.619873 253.295044,504.506958 
	C251.413284,501.476349 249.471970,500.153259 245.800964,500.237762 
	C234.657135,500.494202 223.503632,500.330597 211.955933,500.330597 
	C211.955933,517.846619 211.955933,535.117859 211.955933,552.771362 
	C205.523361,552.771362 199.473740,552.771362 193.205353,552.771362 
	C193.205353,504.147675 193.205353,455.404327 193.205353,406.061279 
	C210.320343,406.061279 227.409607,406.061279 244.998444,406.061279 
M277.185760,470.530365 
	C278.669312,465.128540 280.896027,459.807129 281.490814,454.309174 
	C283.003601,440.325134 271.652710,424.072632 258.930389,423.280273 
	C243.382339,422.311981 227.728027,423.049713 211.993759,423.049713 
	C211.993759,443.343140 211.993759,463.407318 211.993759,483.886047 
	C225.879333,483.886047 239.510468,483.667175 253.130768,483.956818 
	C263.617737,484.179840 271.465668,480.136292 277.185760,470.530365 
z"/>
<path fill="#FBFBFB" opacity="1.000000" stroke="none" 
	d="
M669.064575,429.000061 
	C669.064575,421.201416 669.064575,413.902802 669.064575,406.334137 
	C701.816956,406.334137 734.209961,406.334137 766.843811,406.334137 
	C766.843811,411.697449 766.843811,416.953522 766.843811,422.601318 
	C740.687073,422.601318 714.598389,422.601318 688.189697,422.601318 
	C688.189697,438.548248 688.189697,454.110596 688.189697,470.199402 
	C710.879578,470.199402 733.599121,470.199402 756.588013,470.199402 
	C756.588013,475.619751 756.588013,480.519501 756.588013,485.899109 
	C733.725098,485.899109 710.994324,485.899109 688.068481,485.899109 
	C688.068481,502.970032 688.068481,519.564819 688.068481,536.570068 
	C714.951660,536.570068 741.693115,536.570068 768.720093,536.570068 
	C768.720093,542.212402 768.720093,547.454712 768.720093,552.930176 
	C735.671448,552.930176 702.575439,552.930176 669.064575,552.930176 
	C669.064575,511.732758 669.064575,470.616394 669.064575,429.000061 
z"/>
<path fill="#FCFCFC" opacity="1.000000" stroke="none" 
	d="
M534.616333,466.582916 
	C546.434082,452.121643 558.021423,437.932373 570.109741,423.129700 
	C539.107544,423.129700 508.626343,423.129700 477.799255,423.129700 
	C477.799255,417.299347 477.799255,412.043182 477.799255,406.421753 
	C515.784058,406.421753 553.814758,406.421753 591.744934,406.421753 
	C593.415894,415.237823 591.301758,422.374451 585.312805,429.641144 
	C557.454102,463.443542 530.249756,497.785126 502.814972,531.936768 
	C501.803101,533.196411 500.829773,534.486877 499.271057,536.493408 
	C530.650940,536.493408 561.165161,536.493408 591.930664,536.493408 
	C591.930664,542.233887 591.930664,547.476440 591.930664,552.939392 
	C553.281311,552.939392 514.698792,552.939392 476.035797,552.939392 
	C474.869171,544.525757 475.938049,537.493530 481.968811,530.499939 
	C499.912537,509.691376 516.977600,488.125092 534.616333,466.582916 
z"/>
<path fill="#F9F9F9" opacity="1.000000" stroke="none" 
	d="
M399.645111,416.054260 
	C399.645111,461.830566 399.645111,507.116302 399.645111,552.782104 
	C393.424133,552.782104 387.373352,552.782104 381.131622,552.782104 
	C381.131622,504.131927 381.131622,455.392181 381.131622,406.354065 
	C387.108124,406.354065 393.026703,406.354065 399.645111,406.354065 
	C399.645111,409.363647 399.645111,412.463684 399.645111,416.054260 
z"/>
<path fill="#090909" opacity="1.000000" stroke="none" 
	d="
M277.017822,470.861938 
	C271.465668,480.136292 263.617737,484.179840 253.130768,483.956818 
	C239.510468,483.667175 225.879333,483.886047 211.993759,483.886047 
	C211.993759,463.407318 211.993759,443.343140 211.993759,423.049713 
	C227.728027,423.049713 243.382339,422.311981 258.930389,423.280273 
	C271.652710,424.072632 283.003601,440.325134 281.490814,454.309174 
	C280.896027,459.807129 278.669312,465.128540 277.017822,470.861938 
z"/>
</svg>