<svg width="51" height="51" viewBox="0 0 51 51" fill="none" xmlns="http://www.w3.org/2000/svg">
<path d="M43.4869 23.1779H33.2524L42.116 18.0605L40.1695 14.6881L31.3059 19.8054L36.4222 10.9426L33.0498 8.99492L27.9335 17.8578V7.62402H24.0403V17.8588L18.9221 8.99492L15.5508 10.9416L20.668 19.8045L11.8044 14.6881L9.8578 18.0595L18.7214 23.1769H8.48694V27.0702H18.7204L9.8578 32.1876L11.8044 35.56L20.667 30.4436L15.5498 39.3064L18.9221 41.2531L24.0393 32.3893V42.624H27.9326V32.3903L33.0488 41.2531L36.4211 39.3064L31.3039 30.4427L40.1675 35.56L42.1142 32.1876L33.2515 27.0712H43.4849V23.1779H43.4869ZM25.9869 30.419C23.0514 30.419 20.6719 28.0397 20.6719 25.104C20.6719 22.1683 23.0514 19.7888 25.9869 19.7888C28.9225 19.7888 31.3019 22.1683 31.3019 25.104C31.3019 28.0397 28.9225 30.419 25.9869 30.419Z" fill="#625DF5"/>
</svg>
