<svg width="51" height="51" viewBox="0 0 51 51" fill="none" xmlns="http://www.w3.org/2000/svg">
<path fill-rule="evenodd" clip-rule="evenodd" d="M33.2616 18.1485C33.1666 18.4106 33.1175 18.687 33.1163 18.9658C33.1163 19.9405 33.7172 20.8558 34.6841 21.2103L43.4869 24.4261C43.4182 22.5489 43.0449 20.6954 42.3817 18.9378L36.3249 16.7282C35.0886 16.2757 33.7141 16.9141 33.262 18.152M18.8713 18.9658C18.8713 18.6956 18.8229 18.4187 18.7263 18.1485C18.2738 16.9106 16.8993 16.2725 15.663 16.7247L9.60585 18.9343C8.94579 20.6939 8.57377 22.5482 8.5041 24.4261L17.3069 21.2103C17.7667 21.0416 18.1636 20.7359 18.444 20.3345C18.7244 19.9331 18.8747 19.4553 18.8748 18.9658M20.401 22.932C20.3526 23.0196 20.3219 23.1159 20.3108 23.2154C20.2997 23.3148 20.3084 23.4155 20.3363 23.5116C20.3642 23.6077 20.4109 23.6974 20.4735 23.7755C20.5362 23.8535 20.6136 23.9185 20.7014 23.9666C22.463 24.9347 24.2413 25.4152 26.0267 25.4152C27.812 25.4152 29.6009 24.9312 31.3827 23.9666C31.5606 23.87 31.6929 23.7068 31.7505 23.5128C31.8082 23.3189 31.7865 23.11 31.6902 22.932C31.6428 22.8438 31.5784 22.7659 31.5008 22.7027C31.4232 22.6395 31.3338 22.5922 31.2379 22.5636C31.1419 22.5349 31.0413 22.5255 30.9417 22.5358C30.8421 22.5461 30.7455 22.5759 30.6575 22.6236C29.4493 23.2757 28.261 23.6757 27.0766 23.8231C27.4745 23.5849 27.7832 23.2229 27.9553 22.7925C28.1275 22.3621 28.1537 21.8872 28.0298 21.4405C27.9059 20.9939 27.6389 20.6002 27.2696 20.3198C26.9003 20.0394 26.4491 19.8879 25.9854 19.8884C25.4233 19.8887 24.8843 20.1118 24.4867 20.5089C24.0892 20.906 23.8655 21.4445 23.8649 22.0062C23.8649 22.771 24.2722 23.437 24.877 23.8122C23.73 23.6547 22.587 23.2582 21.4337 22.6236C21.2563 22.5263 21.0475 22.5034 20.8532 22.5599C20.6589 22.6164 20.495 22.7477 20.3975 22.925M37.7302 30.8301H14.7273C11.7677 30.8301 9.26405 28.8449 8.48694 26.1341V38.1594C8.48694 40.6255 10.4866 42.624 12.9521 42.624H39.4914C41.6977 42.624 43.4869 40.8355 43.4869 38.6295V26.5443C42.7445 29.0202 40.4443 30.8301 37.7302 30.8301ZM36.3144 13.9016C37.8167 13.9016 39.2151 14.3678 40.3718 15.1606C37.2119 10.605 31.9494 7.62402 25.9889 7.62402C20.0283 7.62402 14.7647 10.605 11.6048 15.1536C12.7984 14.3359 14.2121 13.8994 15.6592 13.9016H36.3179H36.3144Z" fill="black"/>
</svg>
