<svg width="51" height="51" viewBox="0 0 51 51" fill="none" xmlns="http://www.w3.org/2000/svg">
<path d="M14.3667 9.59717C13.9583 9.92763 13.8758 10.4914 14.1361 10.9446C14.798 12.0965 15.5541 13.1952 16.3482 14.2621C17.7322 16.1213 20.6005 19.2102 23.2303 20.9479C25.4588 19.6007 27.5072 19.0114 29.7577 18.3997C26.3831 16.4914 23.4669 13.8718 21.1658 10.7803C20.5512 9.95462 19.9678 9.10086 19.4464 8.21459C19.1871 7.77385 18.6862 7.52644 18.1874 7.66041C17.6623 7.80143 16.9394 8.04102 16.1641 8.4332C15.3985 8.82042 14.787 9.25708 14.3667 9.59717Z" fill="url(#paint0_linear_115_1576)"/>
<path d="M30.856 26.0781C28.2631 26.6909 25.8069 27.6187 23.5914 29.0005C20.4486 30.9607 17.9856 33.7661 16.3554 35.9562C15.5259 37.0707 14.8786 38.0713 14.4356 38.7987C14.3536 38.9335 14.2477 39.115 14.1427 39.2974C13.8873 39.7413 13.944 40.2945 14.3269 40.6382C14.7441 41.0128 15.3576 41.4928 16.1023 41.8675C16.8686 42.2529 17.6533 42.4755 18.2174 42.5991C18.7071 42.7064 19.1872 42.4579 19.4382 42.03C19.9636 41.1342 20.5523 40.2718 21.173 39.438C22.6026 37.5173 24.5455 35.3726 26.7867 33.9748C29.0113 32.5874 31.6891 31.8508 33.9292 31.4767C34.8389 31.3247 35.7595 31.2046 36.6818 31.1625C37.2531 31.1364 37.7376 30.7382 37.8209 30.1808C37.9041 29.6243 37.9869 28.8914 37.9869 28.1799C37.9869 27.4847 37.9079 26.7692 37.8267 26.2177C37.7419 25.6421 37.2316 25.2369 36.6414 25.2375C34.6849 25.2396 32.7512 25.6302 30.856 26.0781Z" fill="#080808"/>
<defs>
<linearGradient id="paint0_linear_115_1576" x1="38.5994" y1="12.075" x2="13.6736" y2="33.5545" gradientUnits="userSpaceOnUse">
<stop stop-color="#080808"/>
<stop offset="1" stop-color="#080808" stop-opacity="0"/>
</linearGradient>
</defs>
</svg>
