<svg width="51" height="51" viewBox="0 0 51 51" fill="none" xmlns="http://www.w3.org/2000/svg">
<g clip-path="url(#clip0_115_1580)">
<path d="M20.0537 18.0102L20.0542 18.0085L30.5506 24.2893L36.8052 21.66C38.0761 21.1111 39.4466 20.8296 40.8312 20.8309C41.0619 20.8309 41.2899 20.8414 41.5168 20.8565C40.7648 17.9273 39.1774 15.2794 36.9474 13.2344C34.7174 11.1895 31.9408 9.83566 28.9551 9.3374C25.9695 8.83913 22.9032 9.21791 20.1289 10.4277C17.3546 11.6375 14.9918 13.6262 13.3276 16.1522C13.3811 16.1515 13.4337 16.1482 13.4873 16.1482C15.8071 16.145 18.0815 16.79 20.0537 18.0102Z" fill="#0364B8"/>
<path d="M20.0538 18.0085L20.0534 18.0103C18.0812 16.79 15.8068 16.1451 13.487 16.1482C13.4334 16.1482 13.3807 16.1516 13.3273 16.1522C11.0568 16.1803 8.83688 16.8259 6.90612 18.0197C4.97535 19.2135 3.40672 20.9103 2.36877 22.9278C1.33083 24.9453 0.862828 27.2072 1.01505 29.4704C1.16728 31.7337 1.93398 33.9127 3.23276 35.7733L12.4891 31.8821L16.6038 30.1523L25.7656 26.3008L30.5502 24.2894L20.0538 18.0085Z" fill="#0078D4"/>
<path d="M41.5161 20.8563C41.2893 20.8412 41.0612 20.8308 40.8305 20.8308C39.4459 20.8294 38.0757 21.1119 36.8048 21.6608L30.5499 24.2892L32.3636 25.3744L38.3088 28.9319L40.9027 30.4841L49.772 35.7913C50.5779 34.2968 50.9956 32.6241 50.9867 30.9265C50.9778 29.2289 50.5427 27.5607 49.7212 26.0746C48.8997 24.5885 47.7181 23.3321 46.2846 22.4205C44.8511 21.5088 43.2116 20.971 41.5161 20.8563Z" fill="#1490DF"/>
<path d="M40.903 30.4853L38.3091 28.9332L32.3638 25.3757L30.5501 24.2904L25.7655 26.3018L16.6037 30.1533L12.489 31.8831L3.2327 35.7744C4.38296 37.4265 5.91638 38.7759 7.70201 39.7075C9.48765 40.639 11.4724 41.1251 13.4869 41.124H40.8308C42.6642 41.1245 44.4635 40.6292 46.0378 39.6905C47.612 38.7518 48.9025 37.4049 49.7723 35.7926L40.903 30.4853Z" fill="#28A8EA"/>
</g>
<defs>
<clipPath id="clip0_115_1580">
<rect width="50" height="50" fill="white" transform="translate(0.986938 0.124023)"/>
</clipPath>
</defs>
</svg>
