<svg width="51" height="51" viewBox="0 0 51 51" fill="none" xmlns="http://www.w3.org/2000/svg">
<path fill-rule="evenodd" clip-rule="evenodd" d="M26.0646 42.624H12.6353C10.5394 42.624 8.98694 41.0331 8.98694 38.8854V24.9649C8.98694 15.3399 16.5166 7.62402 25.7541 7.62402C35.6125 7.62402 42.9869 15.1808 42.9869 25.2831C42.9093 34.9081 35.4573 42.624 26.0646 42.624ZM33.7495 27.3513L26.4527 26.6354C25.8317 26.6354 25.3659 26.1581 25.2107 25.5218L24.1239 17.249C24.1239 16.8513 23.7358 16.6127 23.5029 16.6127C23.27 16.6127 22.8819 16.7718 22.8819 17.0899L20.7084 29.8172C20.5531 30.2149 20.9413 30.5331 21.407 30.5331L33.8271 28.624C34.2153 28.4649 34.4481 28.2263 34.2929 27.9877C34.2152 27.749 34.06 27.3513 33.7495 27.3513Z" fill="#603680"/>
</svg>
