<svg width="51" height="51" viewBox="0 0 51 51" fill="none" xmlns="http://www.w3.org/2000/svg">
<path d="M43.4869 25.124C43.4869 34.7894 35.6517 42.624 25.987 42.624C22.9566 42.624 20.1062 41.8542 17.6209 40.4987C12.1791 37.5312 8.48694 31.7589 8.48694 25.124C8.48694 15.4592 16.322 7.62402 25.9868 7.62402C35.6517 7.62402 43.4869 15.4592 43.4869 25.124Z" fill="#20B276"/>
<path d="M32.6077 29.7411C30.7559 31.6497 28.5089 32.6042 25.8666 32.6042C24.2539 32.6042 22.7456 32.2078 21.3412 31.4148L21.3397 42.0007C21.3397 42.0007 20.9979 41.9066 20.553 41.763C20.4433 41.7276 20.3325 41.6896 20.2165 41.6487C20.1613 41.629 20.1343 41.6175 20.0775 41.6013C19.932 41.5593 19.7475 41.4783 19.6053 41.423C19.1276 41.2369 18.7404 41.0597 18.7311 41.0553C18.7218 41.0508 17.3543 40.3986 17.2001 40.3022C17.062 40.2159 16.939 40.1483 16.8337 40.0725C16.8 40.0487 16.7745 40.0314 16.7426 40.0094C16.4921 39.8372 16.3521 39.7383 16.3521 39.7383L16.3479 22.7693C16.3479 20.0478 17.2737 17.7365 19.1255 15.8351C20.9772 13.9332 23.2242 12.9827 25.8667 12.9827C28.5091 12.9827 30.7561 13.9368 32.6078 15.8455C34.4595 17.754 35.3857 20.0701 35.3857 22.7934C35.3854 25.5168 34.4593 27.8326 32.6077 29.7411ZM29.0732 19.4854C28.1939 18.5784 27.1252 18.1251 25.8664 18.1251C24.6075 18.1251 23.5387 18.5784 22.6597 19.4854C21.7805 20.3923 21.341 21.4947 21.341 22.7934C21.341 24.092 21.7805 25.1944 22.6597 26.1012C23.5387 27.0086 24.6075 27.462 25.8664 27.462C27.125 27.462 28.1939 27.0086 29.0732 26.1012C29.9522 25.1944 30.3919 24.092 30.3919 22.7934C30.3919 21.4947 29.9522 20.3923 29.0732 19.4854Z" fill="white"/>
</svg>
