<svg width="51" height="51" viewBox="0 0 51 51" fill="none" xmlns="http://www.w3.org/2000/svg">
<path d="M36.1465 7.62402H15.8285C11.7744 7.62402 8.48694 10.9323 8.48694 15.0121V35.236C8.48694 39.3169 11.7744 42.624 15.8285 42.624H36.1453C40.2006 42.624 43.4869 39.3157 43.4869 35.236V15.0121C43.4869 10.9312 40.1994 7.62402 36.1453 7.62402H36.1465ZM40.7252 34.5333C40.7252 37.3673 38.4428 39.6653 35.6254 39.6653H16.0891C13.5045 39.6653 11.4097 37.5573 11.4097 34.9563V15.5388C11.4097 12.7036 13.6932 10.4068 16.5094 10.4068H36.0457C38.6304 10.4068 40.7252 12.5148 40.7252 15.1158V34.5333Z" fill="#FF7A00"/>
<path d="M16.6785 34.9563C17.5539 34.9563 19.5306 34.9563 20.4072 34.9563C20.6469 34.9563 20.8403 34.7617 20.8403 34.5205V20.0066C20.8403 19.8539 20.963 19.7292 21.1159 19.7292H30.7167C30.8684 19.7292 30.9923 19.8528 30.9923 20.0066V24.8519C30.9923 25.0046 30.8696 25.1293 30.7167 25.1293H26.167V28.5937C26.167 28.7918 26.2226 28.9864 26.328 29.1542L29.9455 34.9062C29.9965 34.9866 30.0833 35.0344 30.1783 35.0344H34.1386C34.3864 35.0344 34.5392 34.764 34.4142 34.5496L31.6327 29.7835C31.5435 29.6309 31.6176 29.4339 31.7844 29.3803C32.7779 29.0599 35.6821 27.9668 35.7783 26.1V18.099C35.7783 18.099 35.9716 15.0307 31.9187 15.2242H19.3835C18.7756 15.2242 18.1746 15.3815 17.6547 15.6996C16.9032 16.1599 16.0787 17.0222 16.2084 18.5639C16.2084 18.5861 16.2396 31.9277 16.2454 34.5217C16.2454 34.7617 16.4388 34.9551 16.6773 34.9551L16.6785 34.9563Z" fill="#0684BC"/>
</svg>
