<svg width="51" height="51" viewBox="0 0 51 51" fill="none" xmlns="http://www.w3.org/2000/svg">
<path d="M15.8646 29.7497C15.8646 31.7839 14.2218 33.4281 12.1893 33.4281C10.1567 33.4281 8.51393 31.7839 8.51393 29.7497C8.51393 27.7154 10.1567 26.0713 12.1893 26.0713H15.8646V29.7497ZM17.7023 29.7497C17.7023 27.7154 19.345 26.0713 21.3776 26.0713C23.4102 26.0713 25.0529 27.7154 25.0529 29.7497V38.9456C25.0529 40.9799 23.4102 42.624 21.3776 42.624C19.345 42.624 17.7023 40.9799 17.7023 38.9456V29.7497Z" fill="#E01E5A"/>
<path d="M21.3785 14.9808C19.3459 14.9808 17.7031 13.3367 17.7031 11.3024C17.7031 9.26815 19.3459 7.62402 21.3785 7.62402C23.411 7.62402 25.0538 9.26815 25.0538 11.3024V14.9808H21.3785ZM21.3785 16.8479C23.411 16.8479 25.0538 18.492 25.0538 20.5262C25.0538 22.5605 23.411 24.2046 21.3785 24.2046H12.1623C10.1297 24.2046 8.48694 22.5605 8.48694 20.5262C8.48694 18.492 10.1297 16.8479 12.1623 16.8479H21.3785Z" fill="#36C5F0"/>
<path d="M36.1084 20.5262C36.1084 18.492 37.7512 16.8479 39.7838 16.8479C41.8163 16.8479 43.4591 18.492 43.4591 20.5262C43.4591 22.5605 41.8163 24.2046 39.7838 24.2046H36.1084V20.5262ZM34.2708 20.5262C34.2708 22.5605 32.628 24.2046 30.5954 24.2046C28.5629 24.2046 26.9201 22.5605 26.9201 20.5262V11.3024C26.9201 9.26815 28.5629 7.62402 30.5954 7.62402C32.628 7.62402 34.2708 9.26815 34.2708 11.3024V20.5262Z" fill="#2EB67D"/>
<path d="M30.5954 35.2673C32.628 35.2673 34.2708 36.9114 34.2708 38.9456C34.2708 40.9799 32.628 42.624 30.5954 42.624C28.5629 42.624 26.9201 40.9799 26.9201 38.9456V35.2673H30.5954ZM30.5954 33.4281C28.5629 33.4281 26.9201 31.7839 26.9201 29.7497C26.9201 27.7154 28.5629 26.0713 30.5954 26.0713H39.8116C41.8442 26.0713 43.4869 27.7154 43.4869 29.7497C43.4869 31.7839 41.8442 33.4281 39.8116 33.4281H30.5954Z" fill="#ECB22E"/>
</svg>
