<svg width="51" height="51" viewBox="0 0 51 51" fill="none" xmlns="http://www.w3.org/2000/svg">
<path fill-rule="evenodd" clip-rule="evenodd" d="M25.9877 34.2903C18.5319 34.2903 12.4869 28.3213 12.4869 20.9579C12.4869 13.593 18.5319 7.62402 25.9877 7.62402C33.442 7.62402 39.4869 13.593 39.4869 20.9579C39.4869 28.3213 33.442 34.2903 25.9877 34.2903ZM25.9877 30.2898C31.2057 30.2898 35.4365 26.1114 35.4365 20.9579C35.4376 19.7333 35.194 18.5204 34.7197 17.3886C34.2454 16.2567 33.5497 15.2281 32.6723 14.3614C31.7949 13.4947 30.753 12.8069 29.606 12.3373C28.4591 11.8677 27.2296 11.6255 25.9877 11.6245C24.7459 11.6253 23.5163 11.8673 22.3693 12.3368C21.2223 12.8062 20.1802 13.4938 19.3027 14.3603C18.4251 15.2269 17.7293 16.2554 17.2548 17.3871C16.7803 18.5189 16.5365 19.7317 16.5373 20.9564C16.5363 22.1812 16.7799 23.3942 17.2543 24.5261C17.7287 25.6581 18.4246 26.6868 19.3021 27.5535C20.1797 28.4202 21.2218 29.1079 22.3689 29.5774C23.516 30.0469 24.7457 30.289 25.9877 30.2898ZM15.8625 39.2905H36.1113V42.624H15.8625V39.2905Z" fill="url(#paint0_linear_115_1598)"/>
<defs>
<linearGradient id="paint0_linear_115_1598" x1="1362.49" y1="3507.62" x2="1362.49" y2="7.62402" gradientUnits="userSpaceOnUse">
<stop stop-color="#1410B8"/>
<stop offset="1" stop-color="#4ED8E4"/>
</linearGradient>
</defs>
</svg>
