<svg width="51" height="51" viewBox="0 0 51 51" fill="none" xmlns="http://www.w3.org/2000/svg">
<path d="M35.885 21.6936C35.8671 22.0294 35.7811 22.3581 35.6322 22.6601C35.4832 22.9622 35.2744 23.2313 35.0181 23.4515L28.1889 29.3549C27.7172 29.7625 27.1122 29.9863 26.4865 29.9847C26.4563 29.9853 26.4262 29.984 26.3963 29.9808L26.1374 29.9576C25.6338 29.8849 25.1638 29.6642 24.788 29.324L20.834 25.7696C19.8612 24.9003 19.6298 23.5172 20.277 22.4818C20.4769 22.1646 20.7446 21.8947 21.0611 21.6912C21.3776 21.4877 21.7353 21.3555 22.1089 21.304C22.4826 21.2524 22.8631 21.2827 23.2236 21.3927C23.5842 21.5028 23.916 21.6899 24.1957 21.9409L25.5176 23.1231C25.7984 23.3768 26.1637 23.519 26.5436 23.5225C26.9234 23.5261 27.2913 23.3908 27.577 23.1424L31.5701 19.6923C32.3586 19.0124 33.4373 18.8231 34.3199 19.2055C34.8078 19.4095 35.2202 19.7581 35.5004 20.2035C35.7806 20.649 35.915 21.1695 35.885 21.6936Z" fill="#25CF60"/>
<path d="M21.5989 42.0105C12.1452 39.4821 6.5427 29.85 9.10982 20.5387C11.6769 11.2274 21.4564 5.70905 30.9102 8.23751C31.2444 8.32603 31.5576 8.47918 31.8319 8.68815C32.1062 8.89712 32.3361 9.15779 32.5085 9.45516C32.6808 9.75254 32.7921 10.0808 32.836 10.4209C32.88 10.7611 32.8556 11.1066 32.7644 11.4374C32.6732 11.7682 32.5169 12.0779 32.3046 12.3486C32.0922 12.6194 31.828 12.8458 31.527 13.0149C31.2261 13.1841 30.8944 13.2925 30.551 13.3341C30.2076 13.3757 29.8594 13.3496 29.5262 13.2573C22.8832 11.4806 16.0109 15.3586 14.2069 21.9019C12.4029 28.445 16.34 35.2138 22.983 36.9905C29.6264 38.7673 36.4987 34.8896 38.3026 28.3465C38.4881 27.6799 38.9322 27.1131 39.5378 26.7701C40.1434 26.4271 40.8614 26.3356 41.5348 26.5157C42.2082 26.6959 42.7824 27.1329 43.1318 27.7313C43.4812 28.3298 43.5775 29.0411 43.3997 29.7097C40.8326 39.021 31.0527 44.539 21.5989 42.0105Z" fill="#25CF60"/>
</svg>
