<svg width="51" height="51" viewBox="0 0 51 51" fill="none" xmlns="http://www.w3.org/2000/svg">
<path d="M32.1435 33.2877C30.4327 34.6075 28.2819 35.3407 25.9845 35.3407C23.6871 35.3407 21.4875 34.5586 19.7767 33.2388L14.5953 38.3714C17.6748 41.011 21.6341 42.6241 25.9845 42.6241C30.3349 42.6241 34.2942 41.0598 37.3737 38.4202L32.1924 33.2388L32.1435 33.2877Z" fill="#04ADE0"/>
<path d="M35.9104 22.6802C36.106 23.4623 36.2037 24.2933 36.2037 25.1243C36.2037 27.4217 35.4216 29.5725 34.1507 31.2834L39.3321 36.4648C41.9716 33.3364 43.4869 29.3281 43.4869 25.1732C43.4869 21.0182 42.8026 19.6006 41.5317 17.1077L35.9104 22.7291V22.6802Z" fill="#F54949"/>
<path d="M17.7743 31.2339C16.5034 29.523 15.7702 27.4211 15.7702 25.1237C15.7702 19.4534 20.365 14.9074 25.9862 14.9074C31.6075 14.9074 29.1635 15.2985 30.5321 15.9828L35.8113 10.7036C32.9762 8.79719 29.6034 7.62402 25.9862 7.62402C16.3567 7.62402 8.48694 15.5429 8.48694 25.1237C8.48694 34.7045 9.95336 33.2381 12.5929 36.3665L17.7743 31.2339Z" fill="#00BC6A"/>
<path d="M24.9627 29.3272C24.5228 29.3272 24.034 29.1317 23.6918 28.7895L20.2702 25.3678C19.5858 24.6834 19.5858 23.5592 20.2702 22.8259C20.9545 22.1416 22.0788 22.1416 22.812 22.8259L25.0116 25.0256L38.9426 11.0943C39.6269 10.41 40.7512 10.41 41.4844 11.0943C42.1687 11.7787 42.1687 12.9029 41.4844 13.6362L26.2825 28.8384C25.9403 29.1806 25.5004 29.3761 25.0116 29.3761L24.9627 29.3272Z" fill="#37474F"/>
</svg>
