<svg width="51" height="51" viewBox="0 0 51 51" fill="none" xmlns="http://www.w3.org/2000/svg">
<path d="M25.9869 42.624C35.6519 42.624 43.4869 34.789 43.4869 25.124C43.4869 15.459 35.6519 7.62402 25.9869 7.62402C16.322 7.62402 8.48694 15.459 8.48694 25.124C8.48694 34.789 16.322 42.624 25.9869 42.624Z" fill="#30123A"/>
<path d="M22.7663 28.762C22.7663 30.3734 23.0572 31.6155 23.639 32.461C24.5335 33.7521 25.5315 34.5997 27.9612 34.5997C29.37 34.5997 30.5488 34.2761 31.3235 33.8447V29.029C30.9563 29.1597 30.5695 29.224 30.1806 29.2185C29.2425 29.2185 28.8579 28.9309 28.5114 28.4907C28.287 28.2031 28.1747 27.7804 28.1747 27.2323V24.6687H31.3235V20.073H28.1747V15.6506H24.1511V17.3034C24.1511 19.1349 22.7554 20.6178 21.034 20.6178C20.9076 20.6178 20.7801 20.6102 20.6548 20.5949V24.6676H22.7674V28.7631L22.7663 28.762Z" fill="#F9DE9A"/>
</svg>
