<svg width="51" height="51" viewBox="0 0 51 51" fill="none" xmlns="http://www.w3.org/2000/svg">
<path d="M45.9676 15.7221C45.7901 19.6596 43.0689 25.0535 37.8089 31.8986C32.3715 39.048 27.77 42.624 24.0045 42.624C21.6742 42.624 19.7014 40.4472 18.0887 36.091C17.0135 32.0989 15.9358 28.1094 14.8607 24.1173C13.6646 19.7636 12.3812 17.5842 11.0077 17.5842C10.7093 17.5842 9.65989 18.2214 7.86714 19.4906L5.98694 17.0381C7.95974 15.2852 9.90681 13.5297 11.823 11.7716C14.4569 9.47256 16.4322 8.26062 17.7517 8.13839C20.8639 7.8367 22.7802 9.9901 23.5003 14.596C24.2771 19.5686 24.8147 22.6608 25.1156 23.8702C26.0133 27.9949 27.001 30.0547 28.0787 30.0547C28.9172 30.0547 30.1749 28.7153 31.8519 26.0418C33.5264 23.3656 34.424 21.3293 34.5449 19.9327C34.7841 17.6232 33.8865 16.4659 31.8519 16.4659C30.8926 16.4659 29.9049 16.687 28.8915 17.1291C30.8565 10.6169 34.6118 7.45179 40.1572 7.63124C44.2675 7.75348 46.2043 10.4504 45.9676 15.7221Z" fill="#1AB7EA"/>
</svg>
