<svg width="51" height="51" viewBox="0 0 51 51" fill="none" xmlns="http://www.w3.org/2000/svg">
<path d="M24.7815 22.291C23.2031 24.9195 21.6873 27.4654 20.1423 29.9947C19.9224 30.2746 19.7812 30.607 19.7328 30.9582C19.6844 31.3095 19.7306 31.6672 19.8667 31.9951C20.0824 32.5009 20.1832 33.0476 20.1617 33.5962C20.1403 34.1448 19.9972 34.6821 19.7426 35.17C19.488 35.6578 19.1281 36.0842 18.6884 36.419C18.2488 36.7539 17.7401 36.9889 17.1984 37.1075C15.0104 37.6737 12.8766 36.252 12.4423 33.9334C12.0582 31.8669 13.6658 29.8666 15.9541 29.5484C16.1462 29.5195 16.3424 29.5195 16.6639 29.4947L20.1423 23.7086C17.9542 21.5554 16.6514 19.0384 16.9395 15.9181C17.1045 13.7665 18.0579 11.7485 19.6203 10.2436C21.0929 8.79442 23.022 7.88737 25.0873 7.6731C27.1526 7.45884 29.2298 7.95026 30.974 9.06575C34.4398 11.2686 36.0307 15.5668 34.6778 19.2409L31.5001 18.3854C31.9177 16.3438 31.6129 14.5046 30.2182 12.9341C29.3272 11.9452 28.1024 11.3118 26.7733 11.1529C25.4485 10.9763 24.1035 11.2746 22.9816 11.994C21.8596 12.7133 21.0347 13.8061 20.6559 15.075C19.7707 18.0424 21.1152 20.4643 24.7815 22.291Z" fill="#C73A63"/>
<path d="M29.3066 19.1832L32.6722 25.056C38.3344 23.3202 42.6019 26.424 44.1344 29.7469C45.0402 31.6761 45.2312 33.8593 44.6739 35.9139C44.1166 37.9685 42.8464 39.7635 41.0861 40.9842C37.3573 43.526 32.6429 43.092 29.3358 39.827L31.9289 37.6779C35.1943 39.7692 38.0463 39.67 40.1633 37.1944C41.0371 36.1637 41.5084 34.857 41.4916 33.5116C41.4747 32.1662 40.9708 30.8715 40.0715 29.8626C37.9252 27.4738 35.0606 27.3829 31.5781 29.6931C30.1375 27.1638 28.6551 24.651 27.2772 22.1051C27.0965 21.6969 26.8125 21.3417 26.4526 21.0738C26.0927 20.806 25.6691 20.6345 25.2227 20.576C24.3944 20.4234 23.6448 19.9918 23.1014 19.3545C22.5579 18.7172 22.2541 17.9134 22.2413 17.0795C22.1975 16.2734 22.4135 15.4744 22.8582 14.7976C23.3028 14.1208 23.9532 13.6013 24.7154 13.314C25.4777 13.0266 26.3124 12.9863 27.0993 13.1989C27.8861 13.4114 28.5845 13.8658 29.0936 14.4965C29.5122 14.9769 29.7945 15.5586 29.9119 16.1823C30.0293 16.8059 29.9774 17.4493 29.7617 18.0466C29.6406 18.4021 29.4778 18.7534 29.3066 19.1832Z" fill="#4B4B4B"/>
<path d="M31.9673 35.0737H25.1484C24.497 37.7353 23.0857 39.8802 20.6512 41.2482C18.8088 42.3015 16.6514 42.6818 14.5547 42.3228C12.5647 41.9596 10.7496 40.9613 9.38696 39.4805C8.02435 37.9998 7.18923 36.1181 7.00929 34.1231C6.85771 31.9757 7.4808 29.8448 8.76767 28.1095C10.0545 26.3742 11.9217 25.147 14.037 24.6464L14.9097 27.7791C11.0555 29.7257 9.72348 32.1765 10.8008 35.2431C11.7487 37.9419 14.4462 39.4215 17.3775 38.847C20.3088 38.2725 21.8747 35.8052 21.691 31.8541C24.5263 31.8541 27.3616 31.8252 30.1968 31.8541C31.3034 31.8541 32.1594 31.7591 32.9945 30.792C34.3683 29.2008 36.8946 29.3455 38.3728 30.8457C38.7235 31.2085 38.9985 31.6362 39.1822 32.1042C39.3659 32.5722 39.4547 33.0715 39.4434 33.5735C39.4322 34.0754 39.3212 34.5703 39.1167 35.0298C38.9122 35.4893 38.6183 35.9045 38.2517 36.2515C37.8851 36.5986 37.4531 36.8709 36.9802 37.0527C36.5073 37.2345 36.0029 37.3223 35.4957 37.3112C34.9886 37.3001 34.4886 37.1902 34.0243 36.9878C33.5601 36.7854 33.1406 36.4945 32.7899 36.1317C32.4978 35.793 32.2233 35.4398 31.9673 35.0737Z" fill="#4A4A4A"/>
</svg>
