<svg width="51" height="51" viewBox="0 0 51 51" fill="none" xmlns="http://www.w3.org/2000/svg">
<g clip-path="url(#clip0_115_1616)">
<path d="M49.9414 13.0897C49.3653 10.9372 47.6735 9.24561 45.5209 8.66941C41.6233 7.62402 25.9868 7.62402 25.9868 7.62402C25.9868 7.62402 10.3506 7.62402 6.45285 8.66941C4.30024 9.24561 2.6086 10.9372 2.03238 13.0897C0.986939 16.9873 0.986938 25.124 0.986938 25.124C0.986938 25.124 0.986939 33.2608 2.03238 37.1584C2.6086 39.3109 4.30024 41.0025 6.45285 41.5786C10.3506 42.624 25.9868 42.624 25.9868 42.624C25.9868 42.624 41.6233 42.624 45.5209 41.5786C47.6735 41.0025 49.3653 39.3109 49.9414 37.1584C50.9869 33.2608 50.9869 25.124 50.9869 25.124C50.9869 25.124 50.9827 16.9873 49.9414 13.0897Z" fill="#FF0000"/>
<path d="M20.9834 32.6231L33.9732 25.1244L20.9834 17.6255V32.6231Z" fill="white"/>
</g>
<defs>
<clipPath id="clip0_115_1616">
<rect width="50" height="50" fill="white" transform="translate(0.986938 0.124023)"/>
</clipPath>
</defs>
</svg>
